# Blender 4.1.1
# www.blender.org
mtllib roccia.mtl
o Cube
v 0.825176 -0.151711 -1.131964
v 0.677409 -0.098843 1.120100
v -0.967921 -0.083980 1.002239
v -0.637046 -0.148589 -0.877627
v 1.199453 1.408878 -1.074719
v 0.408485 1.342525 1.589512
v -0.938193 1.527435 1.161259
v -0.627313 1.534595 -1.555652
v 0.961775 -0.204876 -0.155396
v 0.061884 -0.094527 -0.822698
v 1.104332 0.699718 -1.282769
v -0.142198 -0.148850 1.290436
v 1.062847 0.621451 1.450664
v -1.007062 -0.330223 -0.124382
v -1.516215 0.587612 0.896265
v -1.090869 0.626026 -1.190233
v 0.897397 1.620525 0.050290
v 0.096837 1.464866 -1.664320
v -0.317260 1.498094 1.816500
v -1.082926 1.694216 0.010288
v -0.014526 -0.406518 -0.063254
v 0.042418 1.757034 -0.266417
v 1.081167 0.900209 0.177484
v 0.239271 0.588432 1.433723
v -1.516971 0.558765 -0.067233
v -0.183838 0.437866 -1.613245
v 0.928157 -0.164397 0.493770
v -0.295741 -0.078397 -0.737148
v 1.274959 1.049848 -1.240905
v -0.494843 -0.075396 1.212097
v 0.861415 0.880810 1.497818
v -0.793375 -0.284964 -0.563963
v -1.179061 1.149188 1.278981
v -0.896565 1.203896 -1.503014
v 0.743780 1.750335 0.947182
v -0.160993 1.491325 -1.891221
v -0.561462 1.492332 1.394275
v -1.247541 1.618546 -0.752692
v 0.958660 -0.247642 -0.669759
v 0.431433 -0.185717 -1.078146
v 0.994770 0.227649 -1.351934
v 0.224099 -0.183919 1.250625
v 0.933420 0.238538 1.378595
v -1.063273 -0.283201 0.482442
v -1.445634 0.143363 0.809244
v -0.978214 0.096877 -1.066387
v 1.133398 1.581926 -0.624195
v 0.708818 1.458849 -1.364688
v -0.060057 1.433806 1.885846
v -1.082316 1.665600 0.678699
v -0.438127 -0.356256 -0.039259
v 0.441989 -0.405749 -0.116613
v 0.158970 -0.245015 -0.559083
v -0.097772 -0.356656 0.625761
v -0.182169 1.768494 0.662359
v 0.057958 1.659195 -1.044030
v 0.562581 1.758047 -0.305319
v -0.555076 1.746659 -0.011840
v 1.166064 0.819949 1.058774
v 1.165739 0.780270 -0.724213
v 1.167387 0.313418 -0.067078
v 0.966839 1.389052 0.207387
v -0.960084 0.523806 1.354073
v 0.613667 0.571912 1.521118
v -0.124310 0.203680 1.580271
v -0.061520 0.847678 1.682302
v -1.619105 0.415498 -0.760845
v -1.514764 0.601396 0.481975
v -1.424568 -0.199941 -0.268366
v -1.364411 1.389072 0.047596
v -0.713421 0.646826 -1.472628
v 0.511812 0.584046 -1.571328
v 0.140968 1.091023 -1.923841
v -0.166074 0.079230 -1.295594
v -0.580446 -0.294226 0.621942
v -0.623687 1.728613 0.733092
v 1.026656 1.388261 1.030015
v -0.868948 0.966712 1.461959
v -1.581885 1.191458 -0.734765
v -0.690964 0.193777 -1.179156
v -0.330913 -0.285579 -0.626585
v 0.504213 -0.369347 -0.690503
v 0.352778 -0.387594 0.559829
v 0.315359 1.782151 0.906876
v 0.737439 1.733308 -0.752498
v -0.500644 1.677062 -0.933880
v 1.239854 0.246692 0.784162
v 1.217889 0.165593 -0.898863
v 1.309660 1.166368 -0.742387
v -0.650159 0.247827 1.414284
v 0.454732 0.199467 1.469429
v 0.482254 0.898833 1.480975
v -1.238722 -0.102306 -0.848488
v -1.426350 0.043567 0.512024
v -1.319574 1.322230 0.784117
v -0.242142 1.191814 -1.802613
v 0.737874 1.105413 -1.605015
v 0.471695 0.149102 -1.258302
vn -0.3012 -0.7484 0.5909
vn -0.4114 -0.5330 0.7394
vn -0.3728 -0.8942 0.2478
vn -0.5484 0.8153 0.1857
vn -0.4323 0.7381 0.5180
vn -0.5680 0.6745 0.4716
vn 0.4919 0.8139 0.3092
vn 0.5517 0.4803 0.6819
vn 0.3619 0.1270 0.9235
vn -0.7047 0.2226 0.6737
vn -0.9395 0.2745 -0.2050
vn -0.5832 0.7767 -0.2381
vn -0.3857 0.7434 -0.5465
vn 0.0139 -0.7410 -0.6714
vn 0.2850 -0.6089 -0.7402
vn -0.2793 -0.5086 -0.8144
vn 0.0221 -0.7890 -0.6140
vn -0.0570 -0.9975 -0.0408
vn -0.1712 -0.9839 -0.0506
vn -0.0170 -0.9579 -0.2867
vn 0.1715 -0.9850 0.0185
vn -0.0999 -0.9882 -0.1158
vn 0.1704 -0.9686 0.1810
vn 0.1060 -0.7915 0.6019
vn -0.1135 -0.7914 0.6006
vn -0.0659 0.9940 0.0871
vn -0.2577 0.4142 0.8729
vn -0.0989 0.1187 0.9880
vn 0.2464 0.9493 -0.1953
vn 0.0102 0.9806 -0.1956
vn -0.0385 0.9970 -0.0677
vn -0.0624 0.9867 -0.1502
vn -0.4605 0.8873 0.0264
vn 0.9555 -0.2645 0.1306
vn 0.9749 0.1601 0.1548
vn 0.6972 -0.0244 0.7164
vn 0.9480 -0.2124 -0.2370
vn 0.9923 -0.1157 0.0442
vn 0.9811 0.1926 -0.0164
vn 0.9951 0.0250 0.0961
vn 0.7602 0.6484 0.0403
vn 0.7236 0.6858 0.0777
vn -0.3812 -0.3918 0.8374
vn -0.4907 -0.2634 0.8306
vn -0.9327 0.0649 0.3547
vn 0.1443 -0.0263 0.9892
vn -0.2159 -0.1511 0.9646
vn -0.0844 -0.1496 0.9851
vn 0.1320 -0.1972 0.9714
vn -0.9350 -0.2506 -0.2511
vn -0.5389 -0.2640 -0.7999
vn -0.9967 0.0760 0.0301
vn -0.9994 0.0001 0.0350
vn -0.8371 -0.5246 -0.1553
vn -0.8905 0.3859 0.2409
vn -0.2486 -0.1466 -0.9575
vn -0.4871 -0.2367 -0.8407
vn 0.4761 0.1179 -0.8714
vn 0.2644 -0.3564 -0.8961
vn -0.1420 -0.5043 -0.8518
vn -0.1011 -0.7833 -0.6134
vn -0.2875 -0.9010 -0.3250
vn -0.1730 -0.7899 -0.5884
vn -0.1193 -0.9680 0.2209
vn -0.0785 -0.9807 0.1788
vn -0.1310 0.9778 0.1633
vn -0.0613 0.9978 -0.0261
vn 0.8349 0.4484 0.3192
vn 0.9687 0.2466 0.0274
vn -0.4081 -0.0160 0.9128
vn -0.0076 -0.4440 0.8960
vn -0.6006 0.0669 -0.7967
vn -0.8944 0.4366 0.0969
vn -0.1396 -0.7021 -0.6982
vn -0.0605 -0.9553 -0.2892
vn -0.2906 -0.8704 -0.3974
vn 0.6128 -0.7787 -0.1342
vn 0.7145 -0.6973 0.0564
vn 0.5806 -0.7964 0.1694
vn 0.3972 -0.8263 0.3992
vn -0.0165 0.9850 0.1716
vn 0.1472 0.9891 -0.0074
vn 0.3661 0.7207 -0.5887
vn 0.2900 0.7225 -0.6276
vn 0.1951 0.3295 -0.9238
vn 0.5297 -0.4925 0.6905
vn 0.9956 -0.0938 -0.0056
vn 0.4737 -0.1969 -0.8584
vn 0.7767 -0.2512 -0.5777
vn 0.8985 -0.0197 -0.4385
vn 0.7960 0.5333 -0.2863
vn -0.8166 -0.4339 0.3806
vn 0.1769 -0.3999 0.8993
vn -0.5657 -0.6123 -0.5523
vn -0.8741 -0.4627 0.1480
vn 0.1716 0.0178 -0.9850
vn 0.0870 -0.4834 -0.8711
vn 0.3170 -0.7386 -0.5950
vt 0.058285 0.569867
vt 0.082613 0.506661
vt 0.152906 0.498683
vt 0.206316 0.378186
vt 0.155630 0.402329
vt 0.099783 0.387655
vt 0.854473 0.349296
vt 0.794976 0.248970
vt 0.870663 0.174892
vt 0.944083 0.694636
vt 0.905653 0.682602
vt 0.916733 0.604517
vt 0.336809 0.082005
vt 0.369246 0.000842
vt 0.489191 0.000000
vt 0.512673 0.310590
vt 0.481603 0.323059
vt 0.447322 0.276247
vt 0.276846 0.583529
vt 0.215363 0.578539
vt 0.223692 0.502410
vt 0.288525 0.695621
vt 0.226456 0.694739
vt 0.220811 0.635843
vt 0.149628 0.688747
vt 0.060049 0.668982
vt 0.053708 0.620010
vt 0.115533 0.299946
vt 0.042023 0.402498
vt 0.011393 0.383384
vt 0.133867 0.094672
vt 0.226136 0.127633
vt 0.165692 0.199396
vt 0.273683 0.187557
vt 0.335575 0.267841
vt 0.258354 0.321530
vt 0.422948 0.654063
vt 0.520455 0.684734
vt 0.477461 0.726331
vt 0.422729 0.459207
vt 0.529375 0.479105
vt 0.539575 0.580737
vt 0.744126 0.814485
vt 0.672331 0.787452
vt 0.683844 0.711964
vt 0.016271 0.536299
vt 0.006598 0.482318
vt 0.054401 0.402498
vt 0.855242 0.125920
vt 0.818683 0.137473
vt 0.786060 0.070157
vt 0.829103 0.182611
vt 0.720806 0.251159
vt 0.693981 0.268226
vt 0.348488 0.225548
vt 0.431026 0.176751
vt 0.821728 0.494375
vt 0.758928 0.488146
vt 0.747834 0.361119
vt 0.853441 0.628842
vt 0.844101 0.700647
vt 0.766741 0.707183
vt 0.554998 0.057463
vt 0.491069 0.166304
vt 0.661203 0.071636
vt 0.642437 0.169965
vt 0.565426 0.199969
vt 0.619708 0.321108
vt 0.560004 0.310321
vt 0.556413 0.271543
vt 0.137636 0.563411
vt 0.140662 0.629249
vt 0.155028 0.344089
vt 0.206193 0.274302
vt 0.896175 0.282885
vt 0.907061 0.133559
vt 0.622627 0.581780
vt 0.617335 0.678426
vt 0.662917 0.562066
vt 0.672331 0.661064
vt 0.949240 0.587705
vt 0.869574 0.490922
vt 0.791582 0.866218
vt 0.744126 0.821215
vt 0.752056 0.707183
vt 0.999879 0.706758
vt 0.460672 0.063535
vt 0.766456 0.640000
vt 0.672331 0.596657
vt 0.677773 0.459778
vt 0.674914 0.687648
vt 0.485748 0.254952
vt 0.336809 0.833560
vt 0.336920 0.785916
vt 0.384519 0.726331
vt 0.506205 0.350977
vt 0.448079 0.354288
vt 0.559475 0.342029
vt 0.266533 0.646047
vt 0.609960 0.361119
vt 0.278588 0.749240
vt 0.320949 0.673747
vt 0.218381 0.752553
vt 0.143231 0.752483
vt 0.069266 0.722735
vt 0.808347 0.361119
vt 0.116225 0.149680
vt 0.046020 0.277128
vt 0.000000 0.241327
vt 0.056221 0.145884
vt 0.187902 0.035191
vt 0.085645 0.065345
vt 0.273048 0.064123
vt 0.316518 0.068429
vt 0.336809 0.140426
vt 0.340137 0.610197
vt 0.404599 0.713241
vt 0.339988 0.536299
vt 0.439840 0.553878
vt 0.429528 0.400325
vt 0.336833 0.476818
vt 0.517650 0.412671
vt 0.604166 0.482239
vt 0.586459 0.423461
vt 0.646477 0.441109
vt 0.670954 0.491413
vt 0.090851 0.431859
vt 0.000000 0.608449
vt 0.694133 0.143704
vt 0.012308 0.682984
vt 0.019832 0.742597
vt 0.857058 0.070133
vt 0.758736 0.168010
vt 0.408067 0.318081
vt 0.232244 0.440506
vt 0.291247 0.454530
vt 0.270084 0.523882
vt 0.685316 0.388716
vt 0.130148 0.436240
vt 0.834672 0.401576
vt 0.563922 0.000091
vt 0.582099 0.007382
vt 0.608937 0.072162
vt 0.207942 0.000000
vt 0.293309 0.025246
vt 0.579472 0.365264
vt 0.477201 0.361119
vt 0.628288 0.255903
vt 0.693981 0.150197
vt 0.693822 0.237100
vt 0.668575 0.311882
vt 0.731678 0.707183
vt 0.934356 0.187628
vt 0.939564 0.506329
vt 0.791426 0.711743
vt 1.000000 0.606532
vt 0.387737 0.801509
vt 0.324683 0.722893
vt 0.116277 0.014773
vt 0.336809 0.674909
vt 0.353162 0.419686
vt 0.736508 0.092307
vt 0.913859 0.076969
vt 0.867108 0.417288
vt 0.639569 0.392860
s 1
usemtl Material.001
f 30/1/1 3/2/2 44/3/3
f 50/4/4 7/5/5 37/6/6
f 35/7/7 6/8/8 31/9/9
f 37/10/6 7/11/5 33/12/10
f 79/13/11 38/14/12 8/15/13
f 28/16/14 4/17/15 46/18/16
f 81/19/17 51/20/18 14/21/19
f 82/22/20 52/23/21 21/24/22
f 83/25/23 42/26/24 12/27/25
f 55/28/26 19/29/27 49/30/28
f 85/31/29 56/32/30 22/33/31
f 86/34/32 38/35/12 20/36/33
f 87/37/34 59/38/35 13/39/36
f 88/40/37 60/41/38 23/42/39
f 89/43/40 47/44/41 17/45/42
f 90/46/43 63/47/44 15/48/45
f 64/49/46 24/50/47 65/51/48
f 92/52/49 49/53/28 19/54/27
f 67/55/50 16/56/51 46/18/16
f 68/57/52 25/58/53 69/59/54
f 95/60/55 50/61/4 20/62/33
f 96/63/56 71/64/57 16/56/51
f 97/65/58 72/66/59 26/67/60
f 40/68/61 10/69/62 74/70/63
f 75/71/64 44/3/3 14/21/19
f 21/24/22 54/72/65 75/71/64
f 12/27/25 30/1/1 75/71/64
f 76/73/66 37/6/6 19/29/27
f 22/33/31 58/74/67 76/73/66
f 58/74/67 20/36/33 50/4/4
f 77/75/68 31/9/9 13/76/36
f 62/77/69 77/78/68 59/38/35
f 17/79/42 35/80/7 77/78/68
f 78/81/70 33/12/10 15/82/45
f 24/83/47 66/84/71 78/85/70
f 19/86/27 37/10/6 78/81/70
f 67/55/50 79/13/11 34/87/72
f 70/88/73 79/89/11 67/90/50
f 20/62/33 38/91/12 79/89/11
f 71/64/57 80/92/74 46/18/16
f 74/70/63 80/92/74 71/64/57
f 10/93/62 28/94/14 80/95/74
f 28/16/14 81/96/17 32/97/75
f 53/98/76 81/96/17 28/16/14
f 53/99/76 21/24/22 51/20/18
f 40/68/61 82/100/20 53/98/76
f 39/101/77 82/22/20 40/102/61
f 39/101/77 9/103/78 52/23/21
f 52/23/21 83/25/23 54/72/65
f 9/103/78 27/104/79 83/25/23
f 27/104/79 2/105/80 42/26/24
f 35/7/7 84/106/81 49/53/28
f 57/107/82 84/108/81 35/109/7
f 57/107/82 22/33/31 55/28/26
f 85/31/29 57/107/82 17/110/42
f 48/111/83 85/31/29 47/112/41
f 18/113/84 56/32/30 85/31/29
f 56/32/30 86/34/32 58/74/67
f 36/114/85 86/34/32 56/32/30
f 36/114/85 8/115/13 38/35/12
f 27/116/79 87/37/34 43/117/86
f 9/118/78 61/119/87 87/37/34
f 61/119/87 23/42/39 59/38/35
f 88/40/37 61/119/87 9/118/78
f 41/120/88 88/40/37 39/121/77
f 41/120/88 11/122/89 60/41/38
f 60/41/38 89/123/40 62/77/69
f 11/122/89 29/124/90 89/123/40
f 29/124/90 5/125/91 47/126/41
f 30/1/1 90/46/43 45/127/92
f 12/27/25 65/128/48 90/46/43
f 65/51/48 24/50/47 63/129/44
f 91/130/93 65/128/48 12/27/25
f 43/131/86 91/130/93 42/26/24
f 13/76/36 64/49/46 91/132/93
f 64/49/46 92/52/49 66/133/71
f 13/76/36 31/9/9 92/52/49
f 31/9/9 6/8/8 49/53/28
f 93/134/94 46/18/16 4/17/15
f 69/135/54 93/136/94 32/137/75
f 25/58/53 67/90/50 93/138/94
f 44/3/3 94/139/95 69/135/54
f 3/2/2 45/127/92 94/139/95
f 15/82/45 68/57/52 94/140/95
f 95/60/55 70/88/73 25/58/53
f 33/12/10 95/60/55 68/57/52
f 33/12/10 7/11/5 50/61/4
f 36/141/85 96/63/56 34/87/72
f 18/142/84 73/143/96 96/63/56
f 73/143/96 26/67/60 71/64/57
f 48/111/83 97/144/58 73/145/96
f 5/125/91 29/124/90 97/146/58
f 29/124/90 11/122/89 72/147/59
f 72/66/59 98/148/97 74/70/63
f 11/149/89 41/150/88 98/148/97
f 41/150/88 1/151/98 40/68/61
f 75/71/64 30/1/1 44/3/3
f 76/73/66 50/4/4 37/6/6
f 77/75/68 35/7/7 31/9/9
f 78/81/70 37/10/6 33/12/10
f 34/87/72 79/13/11 8/15/13
f 80/92/74 28/16/14 46/18/16
f 32/137/75 81/19/17 14/21/19
f 53/99/76 82/22/20 21/24/22
f 54/72/65 83/25/23 12/27/25
f 84/108/81 55/28/26 49/30/28
f 57/107/82 85/31/29 22/33/31
f 58/74/67 86/34/32 20/36/33
f 43/117/86 87/37/34 13/39/36
f 61/119/87 88/40/37 23/42/39
f 62/152/69 89/43/40 17/45/42
f 45/127/92 90/46/43 15/48/45
f 91/132/93 64/49/46 65/51/48
f 66/133/71 92/52/49 19/54/27
f 93/134/94 67/55/50 46/18/16
f 94/140/95 68/57/52 69/59/54
f 70/88/73 95/60/55 20/62/33
f 34/87/72 96/63/56 16/56/51
f 73/143/96 97/65/58 26/67/60
f 98/148/97 40/68/61 74/70/63
f 51/20/18 75/71/64 14/21/19
f 51/20/18 21/24/22 75/71/64
f 54/72/65 12/27/25 75/71/64
f 55/28/26 76/73/66 19/29/27
f 55/28/26 22/33/31 76/73/66
f 76/73/66 58/74/67 50/4/4
f 59/153/35 77/75/68 13/76/36
f 23/42/39 62/77/69 59/38/35
f 62/77/69 17/79/42 77/78/68
f 63/154/44 78/81/70 15/82/45
f 63/155/44 24/83/47 78/85/70
f 66/156/71 19/86/27 78/81/70
f 16/56/51 67/55/50 34/87/72
f 25/58/53 70/88/73 67/90/50
f 70/88/73 20/62/33 79/89/11
f 16/56/51 71/64/57 46/18/16
f 26/67/60 74/70/63 71/64/57
f 74/157/63 10/93/62 80/95/74
f 4/17/15 28/16/14 32/97/75
f 10/69/62 53/98/76 28/16/14
f 81/19/17 53/99/76 51/20/18
f 10/69/62 40/68/61 53/98/76
f 1/158/98 39/101/77 40/102/61
f 82/22/20 39/101/77 52/23/21
f 21/24/22 52/23/21 54/72/65
f 52/23/21 9/103/78 83/25/23
f 83/25/23 27/104/79 42/26/24
f 6/8/8 35/7/7 49/53/28
f 17/110/42 57/107/82 35/109/7
f 84/108/81 57/107/82 55/28/26
f 47/112/41 85/31/29 17/110/42
f 5/159/91 48/111/83 47/112/41
f 48/111/83 18/113/84 85/31/29
f 22/33/31 56/32/30 58/74/67
f 18/113/84 36/114/85 56/32/30
f 86/34/32 36/114/85 38/35/12
f 2/160/80 27/116/79 43/117/86
f 27/116/79 9/118/78 87/37/34
f 87/37/34 61/119/87 59/38/35
f 39/121/77 88/40/37 9/118/78
f 1/161/98 41/120/88 39/121/77
f 88/40/37 41/120/88 60/41/38
f 23/42/39 60/41/38 62/77/69
f 60/41/38 11/122/89 89/123/40
f 89/123/40 29/124/90 47/126/41
f 3/2/2 30/1/1 45/127/92
f 30/1/1 12/27/25 90/46/43
f 90/162/43 65/51/48 63/129/44
f 42/26/24 91/130/93 12/27/25
f 2/105/80 43/131/86 42/26/24
f 43/163/86 13/76/36 91/132/93
f 24/50/47 64/49/46 66/133/71
f 64/49/46 13/76/36 92/52/49
f 92/52/49 31/9/9 49/53/28
f 32/97/75 93/134/94 4/17/15
f 14/21/19 69/135/54 32/137/75
f 69/59/54 25/58/53 93/138/94
f 14/21/19 44/3/3 69/135/54
f 44/3/3 3/2/2 94/139/95
f 45/164/92 15/82/45 94/140/95
f 68/57/52 95/60/55 25/58/53
f 15/82/45 33/12/10 68/57/52
f 95/60/55 33/12/10 50/61/4
f 8/15/13 36/141/85 34/87/72
f 36/141/85 18/142/84 96/63/56
f 96/63/56 73/143/96 71/64/57
f 18/113/84 48/111/83 73/145/96
f 48/165/83 5/125/91 97/146/58
f 97/146/58 29/124/90 72/147/59
f 26/67/60 72/66/59 74/70/63
f 72/66/59 11/149/89 98/148/97
f 98/148/97 41/150/88 40/68/61
