# Blender 4.1.1
# www.blender.org
mtllib alieno5.mtl
o Object_15
v 0.980705 1.434046 -0.980704
v 0.000000 1.434046 -1.386926
v 0.000000 1.678502 0.000000
v -0.980704 1.434046 -0.980705
v -1.386926 1.434046 -0.000000
v -0.980705 1.434046 0.980704
v 0.000000 1.434046 1.386926
v 0.980704 1.434046 0.980705
v 1.386926 1.434046 0.000000
v -0.006871 -1.966084 1.597525
v -0.450549 -1.882804 2.379329
v -0.927952 -2.263661 1.635140
v -0.465585 -2.007725 0.820405
v -0.927952 -2.263661 1.635140
v -1.367978 -1.966084 0.825088
v -0.927952 -2.263661 1.635140
v -1.811656 -1.882804 1.606892
v -0.927952 -2.263661 1.635140
v -1.352942 -1.841164 2.384012
v -0.927952 -2.263661 1.635140
v -0.450549 -1.882804 2.379329
v -0.927952 -2.263661 1.635140
v 1.392773 -1.966084 -0.782508
v 2.291699 -1.882804 -0.782507
v 1.880101 -2.263661 0.000000
v 0.943310 -2.007725 -0.000000
v 1.880101 -2.263661 0.000000
v 1.392773 -1.966084 0.782507
v 1.880101 -2.263661 0.000000
v 2.291699 -1.882804 0.782507
v 1.880101 -2.263661 0.000000
v 2.741161 -1.841164 0.000000
v 1.880101 -2.263661 0.000000
v 2.291699 -1.882804 -0.782507
v 1.880101 -2.263661 0.000000
v -1.374542 -1.966084 -0.814106
v -1.824468 -1.882804 -1.592331
v -0.941018 -2.263661 -1.627656
v -0.472141 -2.007725 -0.816650
v -0.941018 -2.263661 -1.627656
v -0.019665 -1.966084 -1.597419
v -0.941018 -2.263661 -1.627656
v -0.469591 -1.882804 -2.375644
v -0.941018 -2.263661 -1.627656
v -1.371992 -1.841164 -2.373100
v -0.941018 -2.263661 -1.627656
v -1.824468 -1.882804 -1.592331
v -0.941018 -2.263661 -1.627656
v 0.000000 -1.427268 0.000000
v -0.000000 -1.004703 -3.325749
v 2.351660 -1.004703 -2.351660
v -2.351660 -1.004703 -2.351660
v -3.325749 -1.004703 0.000000
v -2.351660 -1.004703 2.351660
v -0.000000 -1.004703 3.325749
v 2.351660 -1.004703 2.351660
v 3.325750 -1.004703 0.000000
v 1.165833 0.925768 -1.165831
v 0.000000 0.925768 -1.648736
v 0.000000 1.434046 -1.386926
v 0.980705 1.434046 -0.980704
v -1.165831 0.925768 -1.165833
v -0.980704 1.434046 -0.980705
v -1.648735 0.925768 -0.000000
v -1.386926 1.434046 -0.000000
v -1.165833 0.925768 1.165831
v -0.980705 1.434046 0.980704
v -0.000000 0.925768 1.648735
v 0.000000 1.434046 1.386926
v 1.165831 0.925768 1.165833
v 0.980704 1.434046 0.980705
v 1.648736 0.925768 0.000000
v 1.386926 1.434046 0.000000
v -0.050306 0.827822 -1.592729
v 1.161803 0.827822 -1.090659
v 0.050306 0.827822 1.592729
v -1.161802 0.827822 1.090659
v 1.582725 0.827822 0.000001
v 1.119155 0.827822 1.119155
v -1.582725 0.827822 -0.000001
v -1.119155 0.827822 -1.119155
v 1.165833 0.925768 -1.165831
v 1.161803 0.827822 -1.090659
v -0.050306 0.827822 -1.592729
v 0.000000 0.925768 -1.648736
v 1.648736 0.925768 0.000000
v 1.582725 0.827822 0.000001
v -1.119155 0.827822 -1.119155
v -1.165831 0.925768 -1.165833
v -1.582725 0.827822 -0.000001
v -1.648735 0.925768 -0.000000
v -1.161802 0.827822 1.090659
v -1.165833 0.925768 1.165831
v 0.050306 0.827822 1.592729
v -0.000000 0.925768 1.648735
v 1.119155 0.827822 1.119155
v 1.165831 0.925768 1.165833
v 0.412031 -1.164391 1.516082
v -0.215425 -1.046615 2.621719
v -0.236689 -1.223279 0.417068
v -1.512865 -1.164391 0.423691
v -2.140321 -1.046615 1.529328
v -1.491601 -0.987727 2.628342
v -0.215425 -1.046615 2.621719
v 1.115186 -1.164391 -1.106633
v 2.386459 -1.046615 -1.106633
v 0.479549 -1.223279 -0.000000
v 1.115185 -1.164391 1.106633
v 2.386458 -1.046615 1.106633
v 3.022095 -0.987727 0.000000
v 2.386459 -1.046615 -1.106633
v -1.516210 -1.164391 -0.411561
v -2.152501 -1.046615 -1.512138
v -0.240022 -1.223279 -0.415159
v 0.399876 -1.164391 -1.519333
v -0.236415 -1.046615 -2.619910
v -1.512603 -0.987727 -2.616312
v -2.152501 -1.046615 -1.512138
v 2.428767 -0.859741 -2.428767
v -0.000000 -0.859741 -3.434796
v -0.000000 -0.345431 -3.132027
v 2.214678 -0.345431 -2.214678
v -2.428767 -0.859741 -2.428767
v -2.214677 -0.345431 -2.214678
v -3.434796 -0.859741 0.000000
v -3.132027 -0.345431 0.000000
v -2.428767 -0.859741 2.428767
v -2.214677 -0.345431 2.214678
v -0.000000 -0.859741 3.434796
v -0.000000 -0.345431 3.132027
v -0.000000 -0.859741 3.434796
v 2.428767 -0.859741 2.428768
v 2.214678 -0.345431 2.214678
v -0.000000 -0.345431 3.132027
v 3.434796 -0.859741 0.000000
v 3.132028 -0.345431 0.000000
v 2.428767 -0.859741 -2.428767
v 2.214678 -0.345431 -2.214678
v 1.976643 0.413409 -1.976643
v 0.000000 0.413409 -2.795395
v 0.000000 0.827822 -1.714180
v 1.212109 0.827822 -1.212109
v -1.976643 0.413409 -1.976643
v -1.212109 0.827822 -1.212109
v -2.795395 0.413409 0.000000
v -1.714180 0.827822 0.000000
v -1.976643 0.413409 1.976643
v -1.212109 0.827822 1.212109
v 0.000000 0.413409 2.795395
v 0.000000 0.827822 1.714180
v 1.976643 0.413409 1.976643
v 1.212109 0.827822 1.212109
v 2.795396 0.413409 0.000000
v 1.714181 0.827822 0.000000
v 1.976643 0.413409 1.976643
v 0.000000 0.413409 2.795395
v 0.000000 0.413409 2.795395
v -1.976643 0.413409 1.976643
v -2.795395 0.413409 0.000000
v -1.976643 0.413409 -1.976643
v 0.000000 0.413409 -2.795395
v 1.976643 0.413409 -1.976643
v 1.976643 0.413409 -1.976643
v 2.795396 0.413409 0.000000
v -1.714180 0.827822 0.000000
v 1.212109 0.827822 -1.212109
v 0.000000 0.827822 -1.714180
v -1.212109 0.827822 -1.212109
v 1.212109 0.827822 1.212109
v 1.714181 0.827822 0.000000
v -1.212109 0.827822 1.212109
v 0.000000 0.827822 1.714180
v -1.212109 0.827822 1.212109
v 1.714181 0.827822 0.000000
v 1.212109 0.827822 -1.212109
v -1.714180 0.827822 0.000000
v 2.428767 -0.859741 -2.428767
v 2.351660 -1.004703 -2.351660
v -0.000000 -1.004703 -3.325749
v -0.000000 -0.859741 -3.434796
v 2.351660 -1.004703 -2.351660
v 2.428767 -0.859741 -2.428767
v 3.434796 -0.859741 0.000000
v 3.325750 -1.004703 0.000000
v -2.351660 -1.004703 -2.351660
v -2.428767 -0.859741 -2.428767
v -2.351660 -1.004703 -2.351660
v -3.325749 -1.004703 0.000000
v -3.434796 -0.859741 0.000000
v -3.325749 -1.004703 0.000000
v -2.351660 -1.004703 2.351660
v -2.428767 -0.859741 2.428767
v -0.000000 -1.004703 3.325749
v -0.000000 -0.859741 3.434796
v -0.000000 -0.859741 3.434796
v -0.000000 -1.004703 3.325749
v 2.351660 -1.004703 2.351660
v 2.428767 -0.859741 2.428768
v 2.351660 -1.004703 2.351660
v 3.325750 -1.004703 0.000000
vn 0.1227 0.9848 -0.1227
vn -0.0000 0.9848 -0.1736
vn -0.0000 1.0000 -0.0000
vn -0.1227 0.9848 -0.1227
vn -0.1736 0.9848 -0.0000
vn -0.1227 0.9848 0.1227
vn -0.0000 0.9848 0.1736
vn 0.1227 0.9848 0.1227
vn 0.1736 0.9848 -0.0000
vn 0.6305 -0.7741 0.0571
vn 0.3059 -0.7069 0.6378
vn -0.0463 -0.9956 0.0816
vn 0.2914 -0.8071 -0.5135
vn -0.0462 -0.9956 0.0815
vn -0.3724 -0.7741 -0.5120
vn -0.7044 -0.7069 0.0645
vn -0.0463 -0.9956 0.0815
vn -0.3652 -0.6727 0.6435
vn 0.3058 -0.7069 0.6378
vn -0.2615 -0.7741 -0.5765
vn 0.4037 -0.7069 -0.5808
vn 0.0938 -0.9956 -0.0000
vn -0.5904 -0.8071 -0.0000
vn 0.0937 -0.9956 -0.0000
vn -0.2615 -0.7741 0.5766
vn 0.4037 -0.7069 0.5808
vn 0.7399 -0.6727 -0.0000
vn -0.3682 -0.7741 0.5149
vn -0.7049 -0.7069 -0.0588
vn -0.0470 -0.9956 -0.0812
vn 0.2955 -0.8071 0.5111
vn -0.0469 -0.9956 -0.0811
vn 0.6300 -0.7741 -0.0622
vn 0.3008 -0.7069 -0.6402
vn -0.3703 -0.6727 -0.6405
vn -0.0469 -0.9956 -0.0812
vn -0.7049 -0.7069 -0.0589
vn -0.0000 -1.0000 -0.0000
vn -0.0000 -0.9920 -0.1260
vn 0.0891 -0.9920 -0.0891
vn -0.0891 -0.9920 -0.0891
vn -0.1260 -0.9920 -0.0000
vn -0.0891 -0.9920 0.0891
vn -0.0000 -0.9920 0.1260
vn 0.0891 -0.9920 0.0891
vn 0.1260 -0.9920 -0.0000
vn 0.6286 0.4579 -0.6286
vn -0.0000 0.4579 -0.8890
vn -0.6286 0.4579 -0.6286
vn -0.8890 0.4579 -0.0000
vn -0.6286 0.4579 0.6286
vn -0.0000 0.4579 0.8890
vn 0.6286 0.4579 0.6286
vn 0.8890 0.4579 -0.0000
vn 0.6116 -0.5409 -0.5773
vn 0.6117 -0.5409 -0.5773
vn -0.0243 -0.5409 -0.8407
vn 0.8613 -0.5081 -0.0059
vn -0.6049 -0.5081 -0.6132
vn -0.8613 -0.5081 0.0059
vn -0.6117 -0.5409 0.5773
vn -0.6116 -0.5409 0.5773
vn 0.0243 -0.5409 0.8407
vn 0.6049 -0.5081 0.6132
vn 0.8871 -0.4605 0.0300
vn 0.4437 -0.3624 0.8196
vn 0.4249 -0.5089 -0.7487
vn -0.4807 -0.4605 -0.7463
vn -0.9312 -0.3624 0.0393
vn -0.4688 -0.3127 0.8261
vn 0.4438 -0.3623 0.8196
vn -0.4118 -0.4605 -0.7863
vn 0.4938 -0.3624 -0.7905
vn -0.8608 -0.5089 -0.0000
vn -0.4118 -0.4605 0.7864
vn 0.4938 -0.3624 0.7905
vn 0.9499 -0.3127 -0.0000
vn 0.4938 -0.3623 -0.7905
vn -0.4746 -0.4605 0.7501
vn -0.9315 -0.3624 -0.0319
vn 0.4308 -0.5089 0.7452
vn 0.8869 -0.4605 -0.0370
vn 0.4372 -0.3624 -0.8231
vn -0.4754 -0.3127 -0.8223
vn -0.9315 -0.3623 -0.0318
vn 0.6093 0.5073 -0.6094
vn -0.0000 0.5073 -0.8618
vn -0.0000 0.4573 -0.8893
vn 0.6288 0.4574 -0.6288
vn -0.6094 0.5073 -0.6094
vn -0.6288 0.4574 -0.6288
vn -0.8618 0.5073 -0.0000
vn -0.8893 0.4573 -0.0000
vn -0.6094 0.5073 0.6094
vn -0.6288 0.4573 0.6288
vn -0.0000 0.5073 0.8618
vn -0.0001 0.4573 0.8893
vn 0.6094 0.5073 0.6094
vn 0.6288 0.4574 0.6288
vn -0.0000 0.4574 0.8893
vn 0.8618 0.5073 -0.0000
vn 0.8893 0.4573 -0.0000
vn 0.6094 0.5073 -0.6093
vn 0.6289 0.4573 -0.6288
vn 0.2531 0.9338 -0.2531
vn -0.0000 0.9338 -0.3579
vn -0.2531 0.9338 -0.2531
vn -0.3579 0.9338 -0.0000
vn -0.2531 0.9338 0.2531
vn -0.0000 0.9338 0.3579
vn 0.2531 0.9338 0.2531
vn 0.3579 0.9338 -0.0000
vn 0.6464 0.4055 0.6464
vn -0.0000 0.4055 0.9141
vn -0.6464 0.4055 0.6464
vn -0.9141 0.4055 -0.0000
vn -0.6464 0.4055 -0.6464
vn -0.0000 0.4055 -0.9141
vn 0.6463 0.4055 -0.6464
vn 0.6464 0.4055 -0.6464
vn 0.9141 0.4055 -0.0000
vn 0.5650 -0.6011 -0.5651
vn -0.0000 -0.6011 -0.7991
vn 0.5651 -0.6011 -0.5650
vn 0.7992 -0.6011 -0.0001
vn 0.7991 -0.6011 -0.0001
vn -0.5650 -0.6011 -0.5651
vn -0.5651 -0.6011 -0.5650
vn -0.7991 -0.6011 -0.0001
vn -0.7992 -0.6011 -0.0001
vn -0.7992 -0.6011 0.0001
vn -0.7991 -0.6011 0.0001
vn -0.5651 -0.6011 0.5651
vn -0.0001 -0.6011 0.7991
vn 0.0001 -0.6011 0.7992
vn 0.0001 -0.6011 0.7991
vn 0.5650 -0.6011 0.5651
vn 0.5651 -0.6011 0.5650
vn 0.7991 -0.6011 0.0001
vt 0.687073 0.538511
vt 0.715587 0.469673
vt 0.618235 0.469673
vt 0.687073 0.400834
vt 0.618235 0.372321
vt 0.549396 0.400834
vt 0.520882 0.469673
vt 0.549396 0.538511
vt 0.618235 0.567025
vt 0.090766 0.343032
vt 0.011074 0.343032
vt 0.050920 0.405322
vt 0.170457 0.343032
vt 0.130611 0.405322
vt 0.250148 0.343032
vt 0.210303 0.405322
vt 0.329839 0.343032
vt 0.289994 0.405322
vt 0.409531 0.343032
vt 0.369685 0.405322
vt 0.489222 0.343032
vt 0.449376 0.405322
vt 0.281446 0.718441
vt 0.281446 0.987563
vt 0.471744 0.908739
vt 0.091148 0.908739
vt 0.012324 0.718441
vt 0.091148 0.528144
vt 0.281446 0.449320
vt 0.471744 0.528144
vt 0.550568 0.718441
vt 0.708551 0.559990
vt 0.745962 0.469673
vt 0.708551 0.379356
vt 0.618235 0.341946
vt 0.527918 0.379356
vt 0.490507 0.469673
vt 0.527918 0.559990
vt 0.618235 0.597400
vt 0.996201 0.464893
vt 0.960553 0.550954
vt 0.770029 0.472037
vt 0.805677 0.385975
vt 0.883115 0.580840
vt 0.803653 0.547926
vt 0.883115 0.356089
vt 0.962576 0.389003
vt 0.717814 0.569252
vt 0.758709 0.469673
vt 0.618235 0.609504
vt 0.717110 0.370797
vt 0.618235 0.329841
vt 0.518655 0.370093
vt 0.477760 0.469673
vt 0.519359 0.568549
vt 0.090766 0.270808
vt 0.011074 0.270808
vt 0.170457 0.270808
vt 0.250148 0.270808
vt 0.329839 0.270808
vt 0.409531 0.270808
vt 0.489222 0.270808
vt 0.006029 0.106411
vt 0.204085 0.106412
vt 0.204085 0.064793
vt 0.006029 0.064793
vt 0.401769 0.106412
vt 0.401769 0.064794
vt 0.599452 0.106413
vt 0.599452 0.064795
vt 0.796763 0.106413
vt 0.796763 0.064795
vt 0.994446 0.106414
vt 0.994446 0.064796
vt 0.006029 0.226903
vt 0.204085 0.226903
vt 0.204085 0.185285
vt 0.006029 0.185285
vt 0.401769 0.226903
vt 0.401769 0.185285
vt 0.599452 0.226903
vt 0.599452 0.185285
vt 0.928525 0.936379
vt 0.991953 0.783249
vt 0.908192 0.783249
vt 0.869296 0.877151
vt 0.928525 0.630119
vt 0.869296 0.689348
vt 0.775395 0.566691
vt 0.775395 0.650452
vt 0.622265 0.630119
vt 0.681493 0.689348
vt 0.558836 0.783249
vt 0.642597 0.783249
vt 0.622265 0.936379
vt 0.681493 0.877151
vt 0.775395 0.999808
vt 0.775395 0.916047
vt 0.204085 0.123879
vt 0.006029 0.123879
vt 0.994446 0.003390
vt 0.796763 0.003389
vt 0.599452 0.003389
vt 0.401769 0.003388
vt 0.204085 0.003387
vt 0.006029 0.003387
vt 0.599452 0.123879
vt 0.401769 0.123879
vt 0.006029 0.116754
vt 0.204085 0.116754
vt 0.599452 0.237246
vt 0.401769 0.237246
vt 0.401769 0.116755
vt 0.401769 0.116755
vt 0.599452 0.116756
vt 0.599452 0.116756
vt 0.796763 0.116756
vt 0.994446 0.116757
vt 0.006029 0.237246
vt 0.204085 0.237246
vt 0.204085 0.237246
vt 0.401769 0.237246
s 1
usemtl UFOufo_mat
f 1/1/1 2/2/2 3/3/3
f 2/2/2 4/4/4 3/3/3
f 4/4/4 5/5/5 3/3/3
f 5/5/5 6/6/6 3/3/3
f 6/6/6 7/7/7 3/3/3
f 7/7/7 8/8/8 3/3/3
f 8/8/8 9/9/9 3/3/3
f 9/9/9 1/1/1 3/3/3
f 10/10/10 11/11/11 12/12/12
f 13/13/13 10/10/10 14/14/14
f 15/15/15 13/13/13 16/16/14
f 17/17/16 15/15/15 18/18/17
f 19/19/18 17/17/16 20/20/17
f 21/21/19 19/19/18 22/22/17
f 23/10/20 24/11/21 25/12/22
f 26/13/23 23/10/20 27/14/24
f 28/15/25 26/13/23 29/16/24
f 30/17/26 28/15/25 31/18/24
f 32/19/27 30/17/26 33/20/24
f 34/21/21 32/19/27 35/22/22
f 36/10/28 37/11/29 38/12/30
f 39/13/31 36/10/28 40/14/32
f 41/15/33 39/13/31 42/16/32
f 43/17/34 41/15/33 44/18/32
f 45/19/35 43/17/34 46/20/36
f 47/21/37 45/19/35 48/22/36
f 49/23/38 50/24/39 51/25/40
f 49/23/38 52/26/41 50/24/39
f 49/23/38 53/27/42 52/26/41
f 49/23/38 54/28/43 53/27/42
f 49/23/38 55/29/44 54/28/43
f 49/23/38 56/30/45 55/29/44
f 49/23/38 57/31/46 56/30/45
f 49/23/38 51/25/40 57/31/46
f 58/32/47 59/33/48 60/2/48
f 58/32/47 60/2/48 61/1/47
f 59/33/48 62/34/49 63/4/49
f 59/33/48 63/4/49 60/2/48
f 62/34/49 64/35/50 65/5/50
f 62/34/49 65/5/50 63/4/49
f 64/35/50 66/36/51 67/6/51
f 64/35/50 67/6/51 65/5/50
f 66/36/51 68/37/52 69/7/52
f 66/36/51 69/7/52 67/6/51
f 68/37/52 70/38/53 71/8/53
f 68/37/52 71/8/53 69/7/52
f 70/38/53 72/39/54 73/9/54
f 70/38/53 73/9/54 71/8/53
f 72/39/54 58/32/47 61/1/47
f 72/39/54 61/1/47 73/9/54
s 0
f 74/40/38 75/41/38 76/42/38
f 74/40/38 76/42/38 77/43/38
f 75/41/38 78/44/38 79/45/38
f 75/41/38 79/45/38 76/42/38
f 77/43/38 80/46/38 81/47/38
f 77/43/38 81/47/38 74/40/38
s 1
f 82/32/55 83/48/56 84/49/57
f 82/32/55 84/49/57 85/33/57
f 83/48/56 82/32/55 86/39/58
f 83/48/56 86/39/58 87/50/58
f 85/33/57 84/49/57 88/51/59
f 85/33/57 88/51/59 89/34/59
f 89/34/59 88/51/59 90/52/60
f 89/34/59 90/52/60 91/35/60
f 91/35/60 90/52/60 92/53/61
f 91/35/60 92/53/61 93/36/62
f 93/36/62 92/53/61 94/54/63
f 93/36/62 94/54/63 95/37/63
f 95/37/63 94/54/63 96/55/64
f 95/37/63 96/55/64 97/38/64
f 97/38/64 96/55/64 87/50/58
f 97/38/64 87/50/58 86/39/58
f 11/11/11 10/10/10 98/56/65
f 11/11/11 98/56/65 99/57/66
f 10/10/10 13/13/13 100/58/67
f 10/10/10 100/58/67 98/56/65
f 13/13/13 15/15/15 101/59/68
f 13/13/13 101/59/68 100/58/67
f 15/15/15 17/17/16 102/60/69
f 15/15/15 102/60/69 101/59/68
f 17/17/16 19/19/18 103/61/70
f 17/17/16 103/61/70 102/60/69
f 19/19/18 21/21/19 104/62/71
f 19/19/18 104/62/71 103/61/70
f 24/11/21 23/10/20 105/56/72
f 24/11/21 105/56/72 106/57/73
f 23/10/20 26/13/23 107/58/74
f 23/10/20 107/58/74 105/56/72
f 26/13/23 28/15/25 108/59/75
f 26/13/23 108/59/75 107/58/74
f 28/15/25 30/17/26 109/60/76
f 28/15/25 109/60/76 108/59/75
f 30/17/26 32/19/27 110/61/77
f 30/17/26 110/61/77 109/60/76
f 32/19/27 34/21/21 111/62/78
f 32/19/27 111/62/78 110/61/77
f 37/11/29 36/10/28 112/56/79
f 37/11/29 112/56/79 113/57/80
f 36/10/28 39/13/31 114/58/81
f 36/10/28 114/58/81 112/56/79
f 39/13/31 41/15/33 115/59/82
f 39/13/31 115/59/82 114/58/81
f 41/15/33 43/17/34 116/60/83
f 41/15/33 116/60/83 115/59/82
f 43/17/34 45/19/35 117/61/84
f 43/17/34 117/61/84 116/60/83
f 45/19/35 47/21/37 118/62/85
f 45/19/35 118/62/85 117/61/84
f 119/63/86 120/64/87 121/65/88
f 119/63/86 121/65/88 122/66/89
f 120/64/87 123/67/90 124/68/91
f 120/64/87 124/68/91 121/65/88
f 123/67/90 125/69/92 126/70/93
f 123/67/90 126/70/93 124/68/91
f 125/69/92 127/71/94 128/72/95
f 125/69/92 128/72/95 126/70/93
f 127/71/94 129/73/96 130/74/97
f 127/71/94 130/74/97 128/72/95
f 131/75/96 132/76/98 133/77/99
f 131/75/96 133/77/99 134/78/100
f 132/76/98 135/79/101 136/80/102
f 132/76/98 136/80/102 133/77/99
f 135/79/101 137/81/103 138/82/104
f 135/79/101 138/82/104 136/80/102
f 139/83/105 140/84/106 141/85/106
f 139/83/105 141/85/106 142/86/105
f 140/84/106 143/87/107 144/88/107
f 140/84/106 144/88/107 141/85/106
f 143/87/107 145/89/108 146/90/108
f 143/87/107 146/90/108 144/88/107
f 145/89/108 147/91/109 148/92/109
f 145/89/108 148/92/109 146/90/108
f 147/91/109 149/93/110 150/94/110
f 147/91/109 150/94/110 148/92/109
f 149/93/110 151/95/111 152/96/111
f 149/93/110 152/96/111 150/94/110
f 151/95/111 153/97/112 154/98/112
f 151/95/111 154/98/112 152/96/111
f 153/97/112 139/83/105 142/86/105
f 153/97/112 142/86/105 154/98/112
f 133/77/99 155/99/113 156/100/114
f 133/77/99 156/100/114 134/78/100
f 128/72/95 130/74/97 157/101/114
f 128/72/95 157/101/114 158/102/115
f 126/70/93 128/72/95 158/102/115
f 126/70/93 158/102/115 159/103/116
f 124/68/91 126/70/93 159/103/116
f 124/68/91 159/103/116 160/104/117
f 121/65/88 124/68/91 160/104/117
f 121/65/88 160/104/117 161/105/118
f 122/66/89 121/65/88 161/105/118
f 122/66/89 161/105/118 162/106/119
f 136/80/102 138/82/104 163/107/120
f 136/80/102 163/107/120 164/108/121
f 133/77/99 136/80/102 164/108/121
f 133/77/99 164/108/121 155/99/113
s 0
f 165/90/3 166/86/3 167/85/3
f 165/90/3 167/85/3 168/88/3
f 169/96/3 170/98/3 171/92/3
f 169/96/3 171/92/3 172/94/3
f 173/92/3 174/98/3 175/86/3
f 173/92/3 175/86/3 176/90/3
s 1
f 177/63/122 178/109/122 179/110/123
f 177/63/122 179/110/123 180/64/123
f 181/111/124 182/81/124 183/79/125
f 181/111/124 183/79/125 184/112/126
f 180/64/123 179/110/123 185/113/127
f 180/64/123 185/113/127 186/67/127
f 186/67/128 187/114/128 188/115/129
f 186/67/128 188/115/129 189/69/130
f 189/69/131 190/116/132 191/117/133
f 189/69/131 191/117/133 192/71/133
f 192/71/133 191/117/133 193/118/134
f 192/71/133 193/118/134 194/73/134
f 195/75/135 196/119/136 197/120/137
f 195/75/135 197/120/137 198/76/137
f 198/76/138 199/121/138 200/122/139
f 198/76/138 200/122/139 183/79/139
