# Blender 4.1.1
# www.blender.org
mtllib alieno3.mtl
o yrt_alien_03:alien_03_mat_0
v -45.029545 0.441692 0.412860
v -44.714935 0.459340 -0.154492
v -45.348499 1.013380 -0.074993
v -45.651890 0.310564 0.283733
v -45.009605 -0.726791 0.058801
v -45.651890 0.310564 0.283733
v -45.348499 1.013380 -0.074993
v -44.714935 0.459340 -0.154492
v -45.651890 0.310564 0.283733
v -44.714935 0.459340 -0.154492
v -45.009605 -0.726791 0.058801
v -43.900871 0.187122 -0.069187
v -43.575806 0.092901 -0.622931
v -44.081047 0.767177 -0.594890
v -44.533669 0.167865 -0.211921
v -44.093357 -0.986674 -0.303692
v -44.533669 0.167865 -0.211921
v -44.081047 0.767177 -0.594890
v -43.575806 0.092901 -0.622931
v -44.533669 0.167865 -0.211921
v -43.575806 0.092901 -0.622931
v -44.093357 -0.986674 -0.303692
v -47.083755 0.862871 0.112930
v -46.299324 1.019296 0.405331
v -46.611065 1.792514 -0.779887
v -47.000542 0.408113 -0.602309
v -46.716232 -1.126562 1.063861
v -46.361969 0.614690 -0.238826
v -46.611065 1.792514 -0.779887
v -46.299324 1.019296 0.405331
v -46.716232 -1.126562 1.063861
v -47.000542 0.408113 -0.602309
v -42.791660 0.013036 -1.779206
v -43.841656 0.887916 -1.909174
v -42.944443 0.241078 -0.973011
v -43.429150 -0.496561 -2.022552
v -42.069714 -1.860281 -0.796015
v -43.449078 -0.221187 -1.310976
v -42.944443 0.241078 -0.973011
v -43.841656 0.887916 -1.909174
v -42.069714 -1.860281 -0.796015
v -43.429150 -0.496561 -2.022552
v -44.050114 0.811244 -2.557368
v -44.382015 0.570654 -3.322620
v -44.701599 2.180864 -3.209444
v -43.571342 0.377361 -1.135294
v -43.719265 0.398256 -0.820311
v -43.786804 0.138374 -1.001155
v -44.187042 2.462509 -1.435629
v -44.138702 2.087566 -0.910230
v -43.939880 2.247153 -1.511036
v -45.096497 1.907229 -3.520152
v -44.949718 2.396110 -3.136176
v -46.830574 0.662031 -1.304533
v -47.010761 2.056943 -2.168969
v -47.162476 0.421442 -2.069785
v -46.044518 0.244639 -0.020918
v -45.781120 0.031349 -0.102545
v -45.713581 0.291232 0.078300
v -46.049103 2.362582 -0.596611
v -46.249043 2.123233 -0.470561
v -45.654934 2.006198 -0.227038
v -46.958561 1.807302 -2.681134
v -46.811779 2.296182 -2.297158
v -44.863194 2.436513 -2.704259
v -45.241791 3.113414 -2.433477
v -45.001354 2.443641 -1.979637
v -45.633205 2.395191 -2.357304
v -45.633205 2.395191 -2.357304
v -45.779572 2.387336 -2.291352
v -46.811779 2.296182 -2.297158
v -46.549583 2.346013 -1.944397
v -46.549583 2.346013 -1.944397
v -45.917732 2.394464 -1.566730
v -46.158169 3.064237 -2.020570
v -45.779572 2.387336 -2.291352
v -45.779572 2.387336 -2.291352
v -44.949718 2.396110 -3.136176
v -45.633205 2.395191 -2.357304
v -44.863194 2.436513 -2.704259
v -42.701740 -0.187828 -3.503651
v -42.747005 0.057406 -3.346004
v -43.897762 0.322556 -2.277451
v -44.180145 0.058890 -2.294776
v -43.096363 0.277459 -3.353582
v -43.530048 0.281454 -3.893593
v -44.382015 0.570654 -3.322620
v -44.050114 0.811244 -2.557368
v -43.451824 -0.119526 -4.226540
v -43.183964 -0.308881 -4.106094
v -44.570034 -0.198860 -3.190769
v -44.762657 0.166171 -3.574788
v -42.945621 1.008826 -4.420693
v -43.113724 1.306563 -4.567783
v -42.639668 1.200353 -3.903774
v -42.622009 0.943186 -4.047280
v -44.762657 0.166171 -3.574788
v -43.451824 -0.119526 -4.226540
v -43.113724 1.306563 -4.567783
v -43.183041 1.119558 -4.248546
v -42.974979 1.047146 -3.927227
v -43.183964 -0.308881 -4.106094
v -42.701740 -0.187828 -3.503651
v -42.747005 0.057406 -3.346004
v -43.451824 -0.119526 -4.226540
v -43.096363 0.277459 -3.353582
v -43.530048 0.281454 -3.893593
v -43.530048 0.281454 -3.893593
v -43.183041 1.119558 -4.248546
v -44.180145 0.058890 -2.294776
v -43.897762 0.322556 -2.277451
v -43.571342 0.377361 -1.135294
v -44.187042 2.462509 -1.435629
v -44.762657 0.166171 -3.574788
v -44.762657 0.166171 -3.574788
v -44.570034 -0.198860 -3.190769
v -46.871639 -0.322375 -2.153699
v -47.064262 0.042656 -2.537718
v -45.096497 1.907229 -3.520152
v -44.762657 0.166171 -3.574788
v -47.064262 0.042656 -2.537718
v -46.958561 1.807302 -2.681134
v -46.481750 -0.064625 -1.257707
v -48.336716 -0.490227 -0.964615
v -46.481750 -0.064625 -1.257707
v -46.678223 0.173343 -1.024616
v -48.210926 -0.235814 -0.884040
v -48.006119 0.013978 -1.141317
v -46.830574 0.662031 -1.304533
v -47.162476 0.421442 -2.069785
v -48.124443 0.034897 -1.823426
v -48.389072 -0.384483 -2.001888
v -47.064262 0.042656 -2.537718
v -46.871639 -0.322375 -2.153699
v -48.458599 -0.591943 -1.729421
v -48.967930 0.685640 -1.707129
v -48.896133 0.606486 -1.220250
v -48.800152 0.869752 -1.127949
v -48.993649 0.991018 -1.918374
v -47.064262 0.042656 -2.537718
v -48.389072 -0.384483 -2.001888
v -48.993649 0.991018 -1.918374
v -48.583241 0.746180 -1.400227
v -48.692795 0.823878 -1.765930
v -48.458599 -0.591943 -1.729421
v -48.336716 -0.490227 -0.964615
v -48.210926 -0.235814 -0.884040
v -48.389072 -0.384483 -2.001888
v -48.006119 0.013978 -1.141317
v -48.124443 0.034897 -1.823426
v -48.124443 0.034897 -1.823426
v -48.692795 0.823878 -1.765930
v -46.678223 0.173343 -1.024616
v -46.044518 0.244639 -0.020918
v -46.049103 2.362582 -0.596611
v -47.064262 0.042656 -2.537718
v -45.001354 2.443641 -1.979637
v -45.917732 2.394464 -1.566730
v -46.678223 0.173343 -1.024616
v -43.897762 0.322556 -2.277451
vn 0.3730 0.2678 0.8884
vn 0.8302 0.3002 0.4697
vn 0.2086 0.6996 0.6834
vn -0.2280 0.1322 0.9646
vn 0.4426 -0.2531 0.8603
vn -0.3666 -0.2925 -0.8832
vn -0.4150 -0.0601 -0.9078
vn 0.3977 0.2651 0.8784
vn 0.8621 0.1717 0.4768
vn 0.3309 0.6881 0.6458
vn -0.2201 0.2564 0.9412
vn 0.3669 -0.2397 0.8988
vn -0.3978 -0.2615 -0.8794
vn -0.3983 -0.0793 -0.9138
vn -0.8540 0.3593 0.3764
vn -0.3856 0.5534 0.7383
vn -0.7874 0.5855 0.1928
vn -0.9910 0.0257 -0.1316
vn -0.8435 0.0967 0.5283
vn 0.8593 -0.2506 -0.4460
vn 0.8384 -0.0709 -0.5404
vn 0.9965 -0.0296 -0.0783
vn 0.8442 -0.4205 -0.3324
vn 0.5477 -0.4207 -0.7232
vn 0.7406 0.3389 -0.5802
vn 0.5386 0.5519 -0.6366
vn 0.8061 0.5916 -0.0146
vn 0.3876 -0.0453 -0.9207
vn 0.8779 0.0917 -0.4699
vn -0.8081 -0.2366 0.5395
vn -0.5710 0.0234 0.8206
vn -0.8869 -0.0674 0.4570
vn -0.6951 -0.3965 0.5997
vn -0.8812 -0.4487 0.1489
vn 0.9065 0.1889 -0.3776
vn 0.7144 0.1794 -0.6763
vn 0.6745 0.4139 -0.6114
vn 0.9664 -0.2380 0.0971
vn 0.6979 -0.1954 0.6890
vn 0.5387 -0.7932 0.2840
vn 0.3227 0.9355 0.1436
vn 0.6014 0.5077 0.6169
vn 0.8921 0.4494 -0.0469
vn -0.0025 0.3676 -0.9300
vn 0.0636 0.9276 -0.3681
vn -0.8959 0.0921 0.4345
vn -0.9379 0.3274 0.1151
vn -0.9918 0.0878 0.0925
vn -0.5426 -0.3190 0.7771
vn -0.0719 -0.8260 0.5591
vn 0.0727 -0.2289 0.9707
vn -0.1885 0.9081 0.3739
vn -0.6625 0.3659 0.6536
vn 0.0198 0.4765 0.8790
vn -0.7260 0.3288 -0.6040
vn -0.3995 0.9028 -0.1594
vn 0.4563 0.5386 -0.7084
vn -0.0273 0.9979 0.0581
vn 0.2993 0.6065 0.7366
vn -0.8778 0.4669 -0.1073
vn -0.8777 0.4670 -0.1073
vn -0.0794 0.9952 -0.0576
vn -0.3995 0.9027 -0.1595
vn -0.1148 0.9932 -0.0175
vn -0.0274 0.9979 0.0582
vn 0.4562 0.5386 -0.7084
vn -0.0259 0.9980 -0.0575
vn 0.3083 -0.8027 0.5105
vn 0.7042 0.0896 0.7043
vn 0.7042 0.0897 0.7043
vn 0.3084 -0.8027 0.5105
vn 0.4715 0.8775 0.0875
vn -0.0231 0.8356 -0.5489
vn 0.4716 0.8775 0.0875
vn -0.4644 -0.1056 -0.8793
vn -0.1967 -0.9692 -0.1483
vn -0.4644 -0.1055 -0.8793
vn 0.6470 -0.1164 -0.7535
vn -0.1648 0.5897 -0.7906
vn 0.6036 0.6941 0.3924
vn 0.9328 -0.0132 -0.3601
vn -0.4645 -0.1057 -0.8792
vn -0.4644 -0.1057 -0.8793
vn -0.7658 0.5873 0.2619
vn -0.3743 0.6589 0.6525
vn 0.5242 -0.3039 -0.7955
vn 0.9599 -0.1642 -0.2270
vn 0.6469 0.3378 0.6837
vn -0.4912 -0.0555 -0.8693
vn -0.3547 0.5482 0.7574
vn -0.9051 0.3981 0.1492
vn -0.9051 0.3981 0.1493
vn -0.7659 0.5873 0.2618
vn 0.3191 -0.9472 0.0321
vn 0.9129 -0.3248 -0.2471
vn 0.3228 0.9355 0.1435
vn -0.0575 -0.2713 -0.9608
vn -0.0575 -0.2712 -0.9608
vn -0.0476 -0.9740 -0.2217
vn -0.6560 -0.3034 -0.6911
vn -0.0026 0.3676 -0.9300
vn -0.6560 -0.3033 -0.6911
vn -0.1018 -0.9698 0.2218
vn 0.2499 -0.8058 0.5368
vn 0.2499 -0.8058 0.5369
vn 0.0546 0.0548 0.9970
vn -0.3232 0.8348 0.4456
vn -0.3232 0.8348 0.4457
vn -0.4693 0.8116 -0.3478
vn -0.3419 -0.0990 -0.9345
vn 0.1050 -0.9530 -0.2843
vn -0.9788 -0.2036 -0.0209
vn -0.8822 -0.1106 0.4577
vn -0.1660 0.6528 0.7391
vn -0.5348 0.5698 -0.6240
vn -0.3419 -0.0991 -0.9345
vn -0.3418 -0.0991 -0.9345
vn 0.6754 0.7152 0.1795
vn 0.6477 0.6631 -0.3751
vn -0.9126 -0.3810 -0.1481
vn -0.7872 -0.2580 0.5602
vn 0.0549 0.3061 0.9504
vn -0.3212 -0.0464 -0.9459
vn 0.7508 0.6076 0.2593
vn 0.6721 0.4827 -0.5614
vn 0.6721 0.4828 -0.5614
vn -0.7569 -0.4144 0.5053
vn -0.5426 -0.3189 0.7771
vn -0.0231 0.9997 -0.0114
vn -0.0823 0.9965 0.0153
vt 0.711057 0.746477
vt 0.660994 0.746477
vt 0.710966 0.670429
vt 0.759351 0.746477
vt 0.710966 0.858579
vt 0.707457 0.886772
vt 0.658075 0.962820
vt 0.607766 0.886772
vt 0.658075 0.774670
vt 0.817331 0.746477
vt 0.768123 0.746477
vt 0.817505 0.670429
vt 0.867815 0.746477
vt 0.817505 0.858579
vt 0.814586 0.886772
vt 0.764614 0.962820
vt 0.716229 0.886772
vt 0.764614 0.774670
vt 0.655856 0.268440
vt 0.585037 0.268440
vt 0.655856 0.392884
vt 0.724063 0.268440
vt 0.655856 0.041901
vt 0.780648 0.139855
vt 0.780648 0.015412
vt 0.847019 0.139856
vt 0.780648 0.366395
vt 0.707979 0.139856
vt 0.905547 0.248042
vt 0.905547 0.372485
vt 0.979422 0.248042
vt 0.840666 0.248042
vt 0.905547 0.021503
vt 0.929068 0.486898
vt 0.995218 0.486898
vt 0.929068 0.362454
vt 0.929068 0.713437
vt 0.856073 0.486898
vt 0.725232 0.589489
vt 0.814901 0.589302
vt 0.770786 0.427352
vt 0.594046 0.672896
vt 0.566740 0.649251
vt 0.566889 0.672896
vt 0.559684 0.426028
vt 0.540742 0.471033
vt 0.584280 0.447192
vt 0.822530 0.440471
vt 0.767702 0.403774
vt 0.179813 0.589153
vt 0.137694 0.425935
vt 0.090118 0.587267
vt 0.313521 0.672896
vt 0.340679 0.672896
vt 0.340827 0.649251
vt 0.348476 0.426028
vt 0.323130 0.449537
vt 0.368089 0.471033
vt 0.092007 0.432845
vt 0.141218 0.402594
vt 0.912545 0.885079
vt 0.835456 0.876105
vt 0.892159 0.944598
vt 0.830836 0.943386
vt 0.877584 0.806420
vt 0.445779 0.279165
vt 0.348476 0.234615
vt 0.358439 0.279164
vt 0.981766 0.822669
vt 0.986851 0.762509
vt 0.905519 0.808187
vt 0.928615 0.739975
vt 0.924889 0.887280
vt 0.559685 0.234616
vt 0.462381 0.279165
vt 0.549722 0.279165
vt 0.196217 0.202967
vt 0.183218 0.217129
vt 0.174207 0.379174
vt 0.205417 0.390675
vt 0.159876 0.241249
vt 0.090104 0.230401
vt 0.069775 0.333745
vt 0.151275 0.369198
vt 0.301032 0.212044
vt 0.276823 0.199487
vt 0.297877 0.369444
vt 0.334457 0.358160
vt 0.143656 0.776319
vt 0.175465 0.800085
vt 0.151719 0.712254
vt 0.139918 0.726994
vt 0.017274 0.340522
vt 0.066694 0.199013
vt 0.209557 0.674475
vt 0.181344 0.659419
vt 0.154061 0.678702
vt 0.011339 0.746635
vt 0.028708 0.670542
vt 0.054888 0.659339
vt 0.027754 0.770376
vt 0.093197 0.637487
vt 0.163787 0.610187
vt 0.047527 0.806248
vt 0.147954 0.806898
vt 0.584316 0.811232
vt 0.611474 0.793939
vt 0.589430 0.649251
vt 0.580947 0.423149
vt 0.864529 0.617038
vt 0.584316 0.953263
vt 0.584316 0.914982
vt 0.323251 0.914982
vt 0.323251 0.953263
vt 0.559685 0.190868
vt 0.584613 0.010252
vt 0.323548 0.010251
vt 0.348476 0.190867
vt 0.323251 0.811232
vt 0.157908 0.011438
vt 0.148818 0.196454
vt 0.178823 0.187778
vt 0.170819 0.025680
vt 0.194009 0.049945
vt 0.201816 0.177946
vt 0.283647 0.143588
vt 0.263736 0.038941
vt 0.053039 0.019863
vt 0.018706 0.165769
vt 0.055215 0.177281
vt 0.077325 0.007458
vt 0.120133 0.854899
vt 0.169298 0.848454
vt 0.180923 0.833576
vt 0.090880 0.833562
vt 0.326683 0.152093
vt 0.291800 0.009974
vt 0.204369 0.768591
vt 0.213034 0.823569
vt 0.225517 0.792578
vt 0.180931 0.980818
vt 0.251140 0.946312
vt 0.254717 0.915617
vt 0.151080 0.977498
vt 0.267158 0.873306
vt 0.277468 0.798326
vt 0.111080 0.963070
vt 0.090493 0.864774
vt 0.296094 0.793939
vt 0.313806 0.649251
vt 0.326950 0.425846
vt 0.036583 0.606545
vt 0.506051 0.341282
vt 0.402109 0.341282
vt 0.196002 0.649251
vt 0.707838 0.649251
s 1
usemtl alien_03alien_03_mat
f 1/1/1 2/2/2 3/3/3
f 1/1/1 3/3/3 4/4/4
f 5/5/5 1/1/1 4/4/4
f 5/5/5 2/2/2 1/1/1
s 0
f 6/6/6 7/7/6 8/8/6
f 9/6/7 10/8/7 11/9/7
s 1
f 12/10/8 13/11/9 14/12/10
f 12/10/8 14/12/10 15/13/11
f 16/14/12 12/10/8 15/13/11
f 16/14/12 13/11/9 12/10/8
s 0
f 17/15/13 18/16/13 19/17/13
f 20/15/14 21/17/14 22/18/14
s 1
f 23/19/15 24/20/16 25/21/17
f 23/19/15 25/21/17 26/22/18
f 27/23/19 23/19/15 26/22/18
f 27/23/19 24/20/16 23/19/15
f 28/24/20 29/25/21 30/26/22
f 28/24/20 30/26/22 31/27/23
f 32/28/24 28/24/20 31/27/23
f 32/28/24 29/25/21 28/24/20
f 33/29/25 34/30/26 35/31/27
f 33/29/25 36/32/28 34/30/26
f 37/33/29 36/32/28 33/29/25
f 37/33/29 33/29/25 35/31/27
f 38/34/30 39/35/31 40/36/32
f 38/34/30 41/37/33 39/35/31
f 42/38/34 41/37/33 38/34/30
f 42/38/34 38/34/30 40/36/32
f 43/39/35 44/40/36 45/41/37
f 46/42/38 47/43/39 48/44/40
f 49/45/41 50/46/42 51/47/43
f 52/48/44 53/49/45 45/41/37
f 51/47/43 43/39/35 45/41/37
f 54/50/46 55/51/47 56/52/48
f 57/53/49 58/54/50 59/55/51
f 60/56/52 61/57/53 62/58/54
f 63/59/55 55/51/47 64/60/56
f 54/50/46 61/57/53 55/51/47
f 65/61/57 66/62/58 67/63/59
f 67/63/59 66/62/58 68/64/60
f 66/62/58 65/61/57 69/65/61
f 70/66/62 71/67/63 72/68/64
f 73/69/61 74/70/59 75/71/65
f 74/70/59 76/72/66 75/71/65
f 75/71/65 77/73/66 73/69/61
f 78/74/45 79/75/62 80/76/67
f 81/77/68 82/78/69 83/79/70
f 81/77/68 83/79/70 84/80/71
f 85/81/72 86/82/73 87/83/73
f 85/81/72 87/83/73 88/84/74
f 89/85/75 90/86/76 91/87/76
f 89/85/75 91/87/76 92/88/77
f 90/86/76 81/77/68 84/80/71
f 90/86/76 84/80/71 91/87/76
f 93/89/78 94/90/79 95/91/80
f 93/89/78 95/91/80 96/92/81
f 82/78/69 85/81/72 88/84/74
f 82/78/69 88/84/74 83/79/70
f 97/93/82 87/83/73 86/82/73
f 97/93/82 86/82/73 98/94/83
f 99/95/79 100/96/84 101/97/85
f 99/95/79 101/97/85 95/91/80
f 102/98/86 93/89/78 96/92/81
f 102/98/86 96/92/81 103/99/87
f 103/99/87 96/92/81 95/91/80
f 103/99/87 95/91/80 104/100/88
f 105/101/89 94/90/79 93/89/78
f 105/101/89 93/89/78 102/98/86
f 104/100/88 95/91/80 101/97/85
f 104/100/88 101/97/85 106/102/90
f 106/102/90 101/97/85 100/96/84
f 106/102/90 100/96/84 107/103/91
f 108/104/92 109/105/93 94/90/79
f 108/104/92 94/90/79 105/101/89
f 48/44/40 110/106/94 111/107/95
f 48/44/40 111/107/95 46/42/38
f 112/108/38 51/47/43 50/46/42
f 112/108/38 50/46/42 47/43/39
f 51/47/43 45/41/37 53/49/45
f 51/47/43 53/49/45 113/109/96
f 45/41/37 44/40/36 114/110/97
f 45/41/37 114/110/97 52/48/44
f 47/43/39 50/46/42 62/58/54
f 47/43/39 62/58/54 59/55/51
f 48/44/40 47/43/39 59/55/51
f 48/44/40 59/55/51 58/54/50
f 115/111/98 116/112/99 117/113/99
f 115/111/98 117/113/99 118/114/100
f 119/115/101 120/116/97 121/117/102
f 119/115/101 121/117/102 122/118/55
f 78/74/45 119/115/101 122/118/55
f 78/74/45 122/118/55 71/67/63
f 50/46/42 49/45/41 60/56/52
f 50/46/42 60/56/52 62/58/54
f 117/113/99 116/112/99 110/106/94
f 117/113/99 110/106/94 123/119/103
f 124/120/104 125/121/105 126/122/106
f 124/120/104 126/122/106 127/123/106
f 128/124/107 129/125/108 130/126/109
f 128/124/107 130/126/109 131/127/109
f 132/128/110 133/129/110 134/130/111
f 132/128/110 134/130/111 135/131/111
f 135/131/111 134/130/111 125/121/105
f 135/131/111 125/121/105 124/120/104
f 136/132/112 137/133/113 138/134/114
f 136/132/112 138/134/114 139/135/115
f 127/123/106 126/122/106 129/125/108
f 127/123/106 129/125/108 128/124/107
f 140/136/116 141/137/117 131/127/109
f 140/136/116 131/127/109 130/126/109
f 142/138/115 138/134/114 143/139/118
f 142/138/115 143/139/118 144/140/119
f 145/141/120 146/142/121 137/133/113
f 145/141/120 137/133/113 136/132/112
f 146/142/121 147/143/122 138/134/114
f 146/142/121 138/134/114 137/133/113
f 148/144/123 145/141/120 136/132/112
f 148/144/123 136/132/112 139/135/115
f 147/143/122 149/145/124 143/139/118
f 147/143/122 143/139/118 138/134/114
f 149/145/124 150/146/125 144/140/119
f 149/145/124 144/140/119 143/139/118
f 151/147/126 148/144/123 139/135/115
f 151/147/126 139/135/115 152/148/119
f 58/54/50 57/53/49 153/149/127
f 58/54/50 153/149/127 123/119/103
f 154/150/128 59/55/51 62/58/54
f 154/150/128 62/58/54 61/57/53
f 61/57/53 155/151/52 64/60/56
f 61/57/53 64/60/56 55/51/47
f 55/51/47 63/59/55 156/152/100
f 55/51/47 156/152/100 56/52/48
f 123/119/103 110/106/94 48/44/40
f 123/119/103 48/44/40 58/54/50
f 78/74/45 80/76/67 157/153/129
f 78/74/45 157/153/129 49/45/41
f 71/67/63 60/56/52 158/154/130
f 71/67/63 158/154/130 72/68/64
f 158/154/130 157/153/129 79/75/62
f 158/154/130 79/75/62 70/66/62
f 158/154/130 60/56/52 49/45/41
f 158/154/130 49/45/41 157/153/129
f 154/150/128 61/57/53 54/50/46
f 154/150/128 54/50/46 159/155/127
f 51/47/43 112/108/38 160/156/95
f 51/47/43 160/156/95 43/39/35
f 70/66/62 79/75/62 78/74/45
f 70/66/62 78/74/45 71/67/63
o jg_alien_03:alien_03_mat_0
v -44.608505 1.845125 -0.480743
v -44.173275 1.502091 -0.490015
v -43.930229 1.875237 -0.840516
v -44.528229 1.087677 -0.392798
v -43.849957 1.117789 -0.752572
v -45.721218 1.779124 -0.033523
v -45.266033 1.443448 0.002366
v -45.003036 1.823953 -0.302973
v -45.640942 1.021676 0.054421
v -44.922760 1.066504 -0.215028
vn 0.2659 0.3128 0.9118
vn 0.4547 0.1501 0.8779
vn 0.5776 0.3265 0.7482
vn 0.3029 -0.0360 0.9523
vn 0.6145 -0.0218 0.7886
vn 0.1497 0.3036 0.9410
vn 0.3433 0.1441 0.9281
vn 0.4785 0.3242 0.8161
vn 0.1866 -0.0447 0.9814
vn 0.5154 -0.0246 0.8566
vt 0.283104 0.683554
vt 0.251276 0.715382
vt 0.219447 0.683554
vt 0.283104 0.747211
vt 0.219447 0.747211
vt 0.219448 0.683554
vt 0.283104 0.683554
vt 0.219448 0.747211
vt 0.283104 0.747211
s 1
usemtl alien_03alien_03_mat
f 161/157/131 162/158/132 163/159/133
f 164/160/134 162/158/132 161/157/131
f 164/160/134 165/161/135 162/158/132
f 163/159/133 162/158/132 165/161/135
f 166/162/136 167/158/137 168/163/138
f 169/164/139 167/158/137 166/162/136
f 169/164/139 170/165/140 167/158/137
f 168/163/138 167/158/137 170/165/140
