# Blender 4.1.1
# www.blender.org
mtllib alieno3.mtl
o jg_alien_03:alien_03_mat_0
v 0.212888 1.208862 1.455897
v 0.625041 0.865828 1.596042
v 0.973308 1.238974 1.349805
v 0.258244 0.451414 1.565995
v 1.018661 0.481526 1.459900
v -0.985679 1.142861 1.495576
v -0.570220 0.807185 1.684983
v -0.218651 1.187690 1.488009
v -0.940322 0.385413 1.605673
v -0.173295 0.430241 1.598106
vn -0.0620 0.3128 0.9478
vn 0.1271 0.1501 0.9805
vn 0.2869 0.3265 0.9006
vn -0.0411 -0.0360 0.9985
vn 0.3078 -0.0218 0.9512
vn -0.1812 0.3036 0.9354
vn 0.0052 0.1441 0.9895
vn 0.1705 0.3242 0.9305
vn -0.1603 -0.0447 0.9861
vn 0.1913 -0.0246 0.9812
vt 0.283104 0.683554
vt 0.251276 0.715382
vt 0.219447 0.683554
vt 0.283104 0.747211
vt 0.219447 0.747211
vt 0.219448 0.683554
vt 0.219448 0.747211
s 1
usemtl alien_03alien_03_mat
f 1/1/1 2/2/2 3/3/3
f 4/4/4 2/2/2 1/1/1
f 4/4/4 5/5/5 2/2/2
f 3/3/3 2/2/2 5/5/5
f 6/6/6 7/2/7 8/1/8
f 9/7/9 7/2/7 6/6/6
f 9/7/9 10/4/10 7/2/7
f 8/1/8 7/2/7 10/4/10
o yrt_alien_03:alien_03_mat_0
v -0.731842 -0.223273 2.132993
v -0.187702 -0.205625 1.779751
v -0.784429 0.348415 1.552504
v -1.220718 -0.354401 1.726808
v -0.548016 -1.391756 1.829739
v -1.220718 -0.354401 1.726808
v -0.784429 0.348415 1.552504
v -0.187702 -0.205625 1.779751
v -1.220718 -0.354401 1.726808
v -0.187702 -0.205625 1.779751
v -0.548016 -1.391756 1.829739
v 0.491025 -0.477843 2.237251
v 1.038008 -0.572064 1.900933
v 0.578742 0.102212 1.688495
v -0.000692 -0.497100 1.814144
v 0.431164 -1.651639 1.939829
v -0.000692 -0.497100 1.814144
v 0.578742 0.102212 1.688495
v 1.038008 -0.572064 1.900933
v -0.000692 -0.497100 1.814144
v 1.038008 -0.572064 1.900933
v 0.431164 -1.651639 1.939829
v -2.404793 0.197906 0.903777
v -1.849455 0.354331 1.530220
v -1.568280 1.127549 0.337381
v -1.995536 -0.256852 0.311325
v -2.526725 -1.791527 1.915941
v -1.602354 -0.050275 0.932053
v -1.568280 1.127549 0.337381
v -1.849455 0.354331 1.530220
v -2.526725 -1.791527 1.915941
v -1.995536 -0.256852 0.311325
v 2.273206 -0.651929 1.248137
v 1.407131 0.222951 0.640439
v 1.759821 -0.423887 1.888238
v 1.824580 -1.161526 0.733992
v 2.449067 -2.525246 2.455176
v 1.472920 -0.886152 1.352921
v 1.759821 -0.423887 1.888238
v 1.407131 0.222951 0.640439
v 2.449067 -2.525246 2.455176
v 1.824580 -1.161526 0.733992
v 1.527382 0.146279 -0.029748
v 1.593594 -0.094311 -0.861243
v 1.258286 1.515899 -0.911350
v 1.282489 -0.287604 1.450639
v 1.004006 -0.266709 1.659307
v 1.029273 -0.526591 1.467923
v 0.879857 1.797544 0.896405
v 0.675879 1.422601 1.382999
v 1.133489 1.582188 0.945860
v 1.055481 1.242264 -1.371083
v 1.004812 1.731145 -0.963144
v -1.515789 -0.002934 -0.228907
v -1.269057 1.391978 -1.076751
v -1.449577 -0.243523 -1.060403
v -1.424363 -0.420326 1.273489
v -1.153475 -0.633616 1.325074
v -1.178743 -0.373733 1.516459
v -1.158140 1.697617 0.763030
v -1.393853 1.458268 0.780459
v -0.983613 1.341233 1.274394
v -0.982520 1.142337 -1.504460
v -1.033185 1.631217 -1.096519
v 0.878436 1.771548 -0.541162
v 0.417030 2.448449 -0.479817
v 0.416258 1.778676 0.033778
v 0.035671 1.730226 -0.596318
v 0.035671 1.730226 -0.596318
v -0.124525 1.722371 -0.606801
v -1.033185 1.631217 -1.096519
v -0.967291 1.681048 -0.661956
v -0.967291 1.681048 -0.661956
v -0.586703 1.729499 -0.031860
v -0.585931 2.399272 -0.545455
v -0.124525 1.722371 -0.606801
v -0.124525 1.722371 -0.606801
v 1.004812 1.731145 -0.963144
v 0.035671 1.730226 -0.596318
v 0.878436 1.771548 -0.541162
v 3.162178 -0.852793 -0.232243
v 3.048201 -0.607559 -0.114300
v 1.530487 -0.342409 0.288929
v 1.289292 -0.606075 0.141061
v 2.743294 -0.387506 -0.285004
v 2.613892 -0.383511 -0.965409
v 1.593594 -0.094311 -0.861243
v 1.527382 0.146279 -0.029748
v 2.839269 -0.784491 -1.222659
v 3.019230 -0.973846 -0.990559
v 1.365683 -0.863825 -0.833095
v 1.375893 -0.498794 -1.262595
v 3.377369 0.343861 -1.156438
v 3.297998 0.641598 -1.365230
v 3.404832 0.535388 -0.556389
v 3.487795 0.278221 -0.674807
v 1.375893 -0.498794 -1.262595
v 2.839269 -0.784491 -1.222659
v 3.297998 0.641598 -1.365230
v 3.086922 0.454593 -1.115903
v 3.119779 0.382181 -0.734516
v 3.019230 -0.973846 -0.990559
v 3.162178 -0.852793 -0.232243
v 3.048201 -0.607559 -0.114300
v 2.839269 -0.784491 -1.222659
v 2.743294 -0.387506 -0.285004
v 2.613892 -0.383511 -0.965409
v 2.613892 -0.383511 -0.965409
v 3.086922 0.454593 -1.115903
v 1.289292 -0.606075 0.141061
v 1.530487 -0.342409 0.288929
v 1.282489 -0.287604 1.450639
v 0.879857 1.797544 0.896405
v 1.375893 -0.498794 -1.262595
v 1.375893 -0.498794 -1.262595
v 1.365683 -0.863825 -0.833095
v -1.153388 -0.987340 -0.997955
v -1.143178 -0.622309 -1.427454
v 1.055481 1.242264 -1.371083
v 1.375893 -0.498794 -1.262595
v -1.143178 -0.622309 -1.427454
v -0.982520 1.142337 -1.504460
v -1.229779 -0.729590 -0.023799
v -3.005215 -1.155192 -0.635867
v -1.229779 -0.729590 -0.023799
v -1.512684 -0.491622 0.089770
v -2.931977 -0.900779 -0.505669
v -2.630359 -0.650987 -0.636680
v -1.515789 -0.002934 -0.228907
v -1.449577 -0.243523 -1.060403
v -2.414602 -0.630068 -1.294497
v -2.564473 -1.049448 -1.576305
v -1.143178 -0.622309 -1.427454
v -1.153388 -0.987340 -0.997955
v -2.753777 -1.256908 -1.368372
v -3.213955 0.020675 -1.587806
v -3.379138 -0.058479 -1.124211
v -3.337724 0.204787 -0.997653
v -3.137490 0.326053 -1.786398
v -1.143178 -0.622309 -1.427454
v -2.564473 -1.049448 -1.576305
v -3.137490 0.326053 -1.786398
v -3.018376 0.081215 -1.136226
v -2.943420 0.158913 -1.510556
v -2.753777 -1.256908 -1.368372
v -3.005215 -1.155192 -0.635867
v -2.931977 -0.900779 -0.505669
v -2.564473 -1.049448 -1.576305
v -2.630359 -0.650987 -0.636680
v -2.414602 -0.630068 -1.294497
v -2.414602 -0.630068 -1.294497
v -2.943420 0.158913 -1.510556
v -1.512684 -0.491622 0.089770
v -1.424363 -0.420326 1.273489
v -1.158140 1.697617 0.763030
v -1.143178 -0.622309 -1.427454
v 0.416258 1.778676 0.033778
v -0.586703 1.729499 -0.031860
v -1.512684 -0.491622 0.089770
v 1.530487 -0.342409 0.288929
vn -0.0877 0.2678 0.9595
vn 0.5125 0.3002 0.8045
vn -0.1367 0.6996 0.7014
vn -0.6542 0.1322 0.7447
vn -0.0131 -0.2531 0.9673
vn 0.0909 -0.2925 -0.9519
vn 0.0597 -0.0601 -0.9964
vn -0.0612 0.2651 0.9623
vn 0.5373 0.1717 0.8257
vn -0.0110 0.6881 0.7256
vn -0.6362 0.2564 0.7277
vn -0.0980 -0.2397 0.9659
vn 0.0616 -0.2615 -0.9632
vn 0.0773 -0.0793 -0.9939
vn -0.9307 0.3593 -0.0686
vn -0.6871 0.5534 0.4709
vn -0.7857 0.5855 -0.1994
vn -0.8132 0.0257 -0.5814
vn -0.9928 0.0967 0.0705
vn 0.9680 -0.2506 0.0096
vn 0.9940 -0.0709 -0.0836
vn 0.9166 -0.0296 0.3987
vn 0.9015 -0.4205 0.1028
vn 0.8231 -0.4207 -0.3814
vn 0.9263 0.3389 -0.1646
vn 0.7745 0.5519 -0.3092
vn 0.7186 0.5916 0.3655
vn 0.7745 -0.0453 -0.6310
vn 0.9958 0.0917 -0.0027
vn -0.9668 -0.2366 0.0970
vn -0.8894 0.0234 0.4565
vn -0.9976 -0.0674 -0.0129
vn -0.8953 -0.3965 0.2032
vn -0.8480 -0.4487 -0.2822
vn 0.9777 0.1889 0.0922
vn 0.9483 0.1794 -0.2618
vn 0.8825 0.4139 -0.2232
vn 0.8077 -0.2380 0.5395
vn 0.2928 -0.1954 0.9360
vn 0.3423 -0.7932 0.5037
vn 0.2175 0.9355 0.2783
vn 0.2414 0.5077 0.8270
vn 0.8097 0.4494 0.3774
vn 0.4344 0.3676 -0.8223
vn 0.2290 0.9276 -0.2951
vn -0.9951 0.0921 -0.0370
vn -0.8821 0.3274 -0.3387
vn -0.9191 0.0878 -0.3840
vn -0.8439 -0.3190 0.4314
vn -0.3260 -0.8260 0.4599
vn -0.3915 -0.2289 0.8912
vn -0.3419 0.9081 0.2417
vn -0.8918 0.3659 0.2661
vn -0.3952 0.4765 0.7854
vn -0.3575 0.3288 -0.8741
vn -0.2779 0.9028 -0.3283
vn 0.7354 0.5386 -0.4112
vn -0.0514 0.9979 0.0384
vn -0.0815 0.6065 0.7909
vn -0.7246 0.4669 -0.5068
vn -0.7246 0.4670 -0.5068
vn -0.0431 0.9952 -0.0881
vn -0.2779 0.9027 -0.3284
vn -0.0932 0.9932 -0.0694
vn -0.0515 0.9979 0.0385
vn 0.7354 0.5386 -0.4113
vn 0.2289 0.9276 -0.2952
vn 0.0042 0.9980 -0.0630
vn 0.0325 -0.8027 0.5954
vn 0.2911 0.0896 0.9525
vn 0.2911 0.0897 0.9525
vn 0.0326 -0.8027 0.5955
vn 0.3752 0.8775 0.2986
vn 0.2373 0.8356 -0.4955
vn 0.3753 0.8775 0.2987
vn 0.0028 -0.1056 -0.9944
vn -0.1041 -0.9692 -0.2233
vn 0.0028 -0.1055 -0.9944
vn 0.9250 -0.1164 -0.3616
vn 0.2256 0.5897 -0.7754
vn 0.3487 0.6941 0.6298
vn 0.9927 -0.0132 0.1200
vn 0.0026 -0.1057 -0.9944
vn 0.0028 -0.1057 -0.9944
vn 0.2257 0.5898 -0.7754
vn -0.7991 0.5873 -0.1282
vn -0.6368 0.6589 0.4004
vn 0.8363 -0.3039 -0.4563
vn 0.9542 -0.1642 0.2502
vn 0.2502 0.3378 0.9074
vn -0.0255 -0.0555 -0.9981
vn -0.6687 0.5482 0.5023
vn -0.8692 0.3981 -0.2932
vn -0.8693 0.3981 -0.2931
vn -0.7991 0.5873 -0.1284
vn 0.2666 -0.9472 0.1781
vn 0.9221 -0.3248 0.2104
vn 0.8077 -0.2380 0.5394
vn 0.2177 0.9355 0.2783
vn 0.4003 -0.2714 -0.8753
vn 0.4003 -0.2712 -0.8753
vn 0.0620 -0.9740 -0.2181
vn -0.2548 -0.3034 -0.9182
vn 0.4343 0.3676 -0.8224
vn 0.4003 -0.2713 -0.8753
vn -0.2548 -0.3033 -0.9182
vn -0.3574 0.3288 -0.8742
vn -0.1940 -0.9698 0.1480
vn -0.0314 -0.8058 0.5913
vn -0.0314 -0.8058 0.5914
vn -0.4198 0.0548 0.9059
vn -0.4199 0.0548 0.9059
vn -0.4946 0.8349 0.2417
vn -0.4946 0.8348 0.2418
vn -0.2511 0.8116 -0.5274
vn 0.1368 -0.0990 -0.9856
vn 0.1369 -0.0990 -0.9856
vn 0.2262 -0.9530 -0.2017
vn -0.8544 -0.2036 -0.4780
vn -0.9938 -0.1106 -0.0101
vn -0.4935 0.6528 0.5747
vn -0.1792 0.5698 -0.8020
vn 0.1369 -0.0991 -0.9856
vn 0.1370 -0.0991 -0.9856
vn 0.5121 0.7152 0.4756
vn 0.7480 0.6631 -0.0271
vn -0.7363 -0.3810 -0.5592
vn -0.9580 -0.2580 0.1250
vn -0.3977 0.3061 0.8649
vn 0.1604 -0.0464 -0.9860
vn 0.5411 0.6076 0.5814
vn 0.8570 0.4827 -0.1802
vn 0.8570 0.4828 -0.1801
vn 0.7480 0.6631 -0.0272
vn -0.9055 -0.4144 0.0908
vn -0.8439 -0.3189 0.4314
vn -0.3419 0.9081 0.2416
vn -0.2547 -0.3035 -0.9182
vn -0.0150 0.9997 -0.0209
vn -0.0798 0.9965 -0.0251
vn -0.9056 -0.4144 0.0908
vt 0.711057 0.746477
vt 0.660994 0.746477
vt 0.710966 0.670429
vt 0.759351 0.746477
vt 0.710966 0.858579
vt 0.707457 0.886772
vt 0.658075 0.962820
vt 0.607766 0.886772
vt 0.658075 0.774670
vt 0.817331 0.746477
vt 0.768123 0.746477
vt 0.817505 0.670429
vt 0.867815 0.746477
vt 0.817505 0.858579
vt 0.814586 0.886772
vt 0.764614 0.962820
vt 0.716229 0.886772
vt 0.764614 0.774670
vt 0.655856 0.268440
vt 0.585037 0.268440
vt 0.655856 0.392884
vt 0.724063 0.268440
vt 0.655856 0.041901
vt 0.780648 0.139855
vt 0.780648 0.015412
vt 0.847019 0.139856
vt 0.780648 0.366395
vt 0.707979 0.139856
vt 0.905547 0.248042
vt 0.905547 0.372485
vt 0.979422 0.248042
vt 0.840666 0.248042
vt 0.905547 0.021503
vt 0.929068 0.486898
vt 0.995218 0.486898
vt 0.929068 0.362454
vt 0.929068 0.713437
vt 0.856073 0.486898
vt 0.725232 0.589489
vt 0.814901 0.589302
vt 0.770786 0.427352
vt 0.594046 0.672896
vt 0.566740 0.649251
vt 0.566889 0.672896
vt 0.559684 0.426028
vt 0.540742 0.471033
vt 0.584280 0.447192
vt 0.822530 0.440471
vt 0.767702 0.403774
vt 0.179813 0.589153
vt 0.137694 0.425935
vt 0.090118 0.587267
vt 0.313521 0.672896
vt 0.340679 0.672896
vt 0.340827 0.649251
vt 0.348476 0.426028
vt 0.323130 0.449537
vt 0.368089 0.471033
vt 0.092007 0.432845
vt 0.141218 0.402594
vt 0.912545 0.885079
vt 0.835456 0.876105
vt 0.892159 0.944598
vt 0.830836 0.943386
vt 0.877584 0.806420
vt 0.445779 0.279165
vt 0.348476 0.234615
vt 0.358439 0.279164
vt 0.981766 0.822669
vt 0.986851 0.762509
vt 0.905519 0.808187
vt 0.928615 0.739975
vt 0.924889 0.887280
vt 0.559685 0.234616
vt 0.462381 0.279165
vt 0.549722 0.279165
vt 0.196217 0.202967
vt 0.183218 0.217129
vt 0.174207 0.379174
vt 0.205417 0.390675
vt 0.159876 0.241249
vt 0.090104 0.230401
vt 0.069775 0.333745
vt 0.151275 0.369198
vt 0.301032 0.212044
vt 0.276823 0.199487
vt 0.297877 0.369444
vt 0.334457 0.358160
vt 0.143656 0.776319
vt 0.175465 0.800085
vt 0.151719 0.712254
vt 0.139918 0.726994
vt 0.017274 0.340522
vt 0.066694 0.199013
vt 0.209557 0.674475
vt 0.181344 0.659419
vt 0.154061 0.678702
vt 0.011339 0.746635
vt 0.028708 0.670542
vt 0.054888 0.659339
vt 0.027754 0.770376
vt 0.093197 0.637487
vt 0.163787 0.610187
vt 0.047527 0.806248
vt 0.147954 0.806898
vt 0.584316 0.811232
vt 0.611474 0.793939
vt 0.589430 0.649251
vt 0.580947 0.423149
vt 0.864529 0.617038
vt 0.584316 0.953263
vt 0.584316 0.914982
vt 0.323251 0.914982
vt 0.323251 0.953263
vt 0.559685 0.190868
vt 0.584613 0.010252
vt 0.323548 0.010251
vt 0.348476 0.190867
vt 0.323251 0.811232
vt 0.157908 0.011438
vt 0.148818 0.196454
vt 0.178823 0.187778
vt 0.170819 0.025680
vt 0.194009 0.049945
vt 0.201816 0.177946
vt 0.283647 0.143588
vt 0.263736 0.038941
vt 0.053039 0.019863
vt 0.018706 0.165769
vt 0.055215 0.177281
vt 0.077325 0.007458
vt 0.120133 0.854899
vt 0.169298 0.848454
vt 0.180923 0.833576
vt 0.090880 0.833562
vt 0.326683 0.152093
vt 0.291800 0.009974
vt 0.204369 0.768591
vt 0.213034 0.823569
vt 0.225517 0.792578
vt 0.180931 0.980818
vt 0.251140 0.946312
vt 0.254717 0.915617
vt 0.151080 0.977498
vt 0.267158 0.873306
vt 0.277468 0.798326
vt 0.111080 0.963070
vt 0.090493 0.864774
vt 0.296094 0.793939
vt 0.313806 0.649251
vt 0.326950 0.425846
vt 0.036583 0.606545
vt 0.506051 0.341282
vt 0.402109 0.341282
vt 0.196002 0.649251
vt 0.707838 0.649251
s 1
usemtl alien_03alien_03_mat
f 11/8/11 12/9/12 13/10/13
f 11/8/11 13/10/13 14/11/14
f 15/12/15 11/8/11 14/11/14
f 15/12/15 12/9/12 11/8/11
s 0
f 16/13/16 17/14/16 18/15/16
f 19/13/17 20/15/17 21/16/17
s 1
f 22/17/18 23/18/19 24/19/20
f 22/17/18 24/19/20 25/20/21
f 26/21/22 22/17/18 25/20/21
f 26/21/22 23/18/19 22/17/18
s 0
f 27/22/23 28/23/23 29/24/23
f 30/22/24 31/24/24 32/25/24
s 1
f 33/26/25 34/27/26 35/28/27
f 33/26/25 35/28/27 36/29/28
f 37/30/29 33/26/25 36/29/28
f 37/30/29 34/27/26 33/26/25
f 38/31/30 39/32/31 40/33/32
f 38/31/30 40/33/32 41/34/33
f 42/35/34 38/31/30 41/34/33
f 42/35/34 39/32/31 38/31/30
f 43/36/35 44/37/36 45/38/37
f 43/36/35 46/39/38 44/37/36
f 47/40/39 46/39/38 43/36/35
f 47/40/39 43/36/35 45/38/37
f 48/41/40 49/42/41 50/43/42
f 48/41/40 51/44/43 49/42/41
f 52/45/44 51/44/43 48/41/40
f 52/45/44 48/41/40 50/43/42
f 53/46/45 54/47/46 55/48/47
f 56/49/48 57/50/49 58/51/50
f 59/52/51 60/53/52 61/54/53
f 62/55/54 63/56/55 55/48/47
f 61/54/53 53/46/45 55/48/47
f 64/57/56 65/58/57 66/59/58
f 67/60/59 68/61/60 69/62/61
f 70/63/62 71/64/63 72/65/64
f 73/66/65 65/58/57 74/67/66
f 64/57/56 71/64/63 65/58/57
f 75/68/67 76/69/68 77/70/69
f 77/70/69 76/69/68 78/71/70
f 76/69/68 75/68/67 79/72/71
f 80/73/72 81/74/73 82/75/74
f 83/76/71 84/77/69 85/78/75
f 84/77/69 86/79/76 85/78/75
f 85/78/75 87/80/76 83/76/71
f 88/81/77 89/82/72 90/83/78
f 91/84/79 92/85/80 93/86/81
f 91/84/79 93/86/81 94/87/82
f 95/88/83 96/89/84 97/90/84
f 95/88/83 97/90/84 98/91/85
f 99/92/86 100/93/87 101/94/87
f 99/92/86 101/94/87 102/95/88
f 100/93/87 91/84/79 94/87/82
f 100/93/87 94/87/82 101/94/87
f 103/96/89 104/97/90 105/98/91
f 103/96/89 105/98/91 106/99/92
f 92/85/80 95/88/83 98/91/85
f 92/85/80 98/91/85 93/86/81
f 107/100/93 97/90/84 96/89/84
f 107/100/93 96/89/84 108/101/94
f 109/102/95 110/103/96 111/104/97
f 109/102/95 111/104/97 105/98/91
f 112/105/98 103/96/89 106/99/92
f 112/105/98 106/99/92 113/106/99
f 113/106/99 106/99/92 105/98/91
f 113/106/99 105/98/91 114/107/100
f 115/108/101 104/97/90 103/96/89
f 115/108/101 103/96/89 112/105/98
f 114/107/100 105/98/91 111/104/97
f 114/107/100 111/104/97 116/109/102
f 116/109/102 111/104/97 110/103/96
f 116/109/102 110/103/96 117/110/103
f 118/111/104 119/112/105 104/97/90
f 118/111/104 104/97/90 115/108/101
f 58/51/50 120/113/106 121/114/107
f 58/51/50 121/114/107 56/49/48
f 122/115/108 61/54/53 60/53/52
f 122/115/108 60/53/52 57/50/49
f 61/54/53 55/48/47 63/56/55
f 61/54/53 63/56/55 123/116/109
f 55/48/47 54/47/46 124/117/110
f 55/48/47 124/117/110 62/55/54
f 57/50/49 60/53/52 72/65/64
f 57/50/49 72/65/64 69/62/61
f 58/51/50 57/50/49 69/62/61
f 58/51/50 69/62/61 68/61/60
f 125/118/111 126/119/112 127/120/112
f 125/118/111 127/120/112 128/121/113
f 129/122/114 130/123/115 131/124/116
f 129/122/114 131/124/116 132/125/117
f 88/81/77 129/122/114 132/125/117
f 88/81/77 132/125/117 81/74/73
f 60/53/52 59/52/51 70/63/62
f 60/53/52 70/63/62 72/65/64
f 127/120/112 126/119/112 120/113/106
f 127/120/112 120/113/106 133/126/118
f 134/127/119 135/128/120 136/129/121
f 134/127/119 136/129/121 137/130/122
f 138/131/123 139/132/124 140/133/125
f 138/131/123 140/133/125 141/134/125
f 142/135/126 143/136/127 144/137/128
f 142/135/126 144/137/128 145/138/128
f 145/138/128 144/137/128 135/128/120
f 145/138/128 135/128/120 134/127/119
f 146/139/129 147/140/130 148/141/131
f 146/139/129 148/141/131 149/142/132
f 137/130/122 136/129/121 139/132/124
f 137/130/122 139/132/124 138/131/123
f 150/143/133 151/144/134 141/134/125
f 150/143/133 141/134/125 140/133/125
f 152/145/132 148/141/131 153/146/135
f 152/145/132 153/146/135 154/147/136
f 155/148/137 156/149/138 147/140/130
f 155/148/137 147/140/130 146/139/129
f 156/149/138 157/150/139 148/141/131
f 156/149/138 148/141/131 147/140/130
f 158/151/140 155/148/137 146/139/129
f 158/151/140 146/139/129 149/142/132
f 157/150/139 159/152/141 153/146/135
f 157/150/139 153/146/135 148/141/131
f 159/152/141 160/153/142 154/147/136
f 159/152/141 154/147/136 153/146/135
f 161/154/143 158/151/140 149/142/132
f 161/154/143 149/142/132 162/155/144
f 68/61/60 67/60/59 163/156/145
f 68/61/60 163/156/145 133/126/118
f 164/157/146 69/62/61 72/65/64
f 164/157/146 72/65/64 71/64/63
f 71/64/63 165/158/147 74/67/66
f 71/64/63 74/67/66 65/58/57
f 65/58/57 73/66/65 166/159/148
f 65/58/57 166/159/148 66/59/58
f 133/126/118 120/113/106 58/51/50
f 133/126/118 58/51/50 68/61/60
f 88/81/77 90/83/78 167/160/149
f 88/81/77 167/160/149 59/52/51
f 81/74/73 70/63/62 168/161/150
f 81/74/73 168/161/150 82/75/74
f 168/161/150 167/160/149 89/82/72
f 168/161/150 89/82/72 80/73/72
f 168/161/150 70/63/62 59/52/51
f 168/161/150 59/52/51 167/160/149
f 164/157/146 71/64/63 64/57/56
f 164/157/146 64/57/56 169/162/151
f 61/54/53 122/115/108 170/163/107
f 61/54/53 170/163/107 53/46/45
f 80/73/72 89/82/72 88/81/77
f 80/73/72 88/81/77 81/74/73
